<svg xmlns="http://www.w3.org/2000/svg"  viewBox="0 0 50 50" width="100px" height="100px"><path d="M 25 2 C 12.309295 2 2 12.309295 2 25 C 2 37.690705 12.309295 48 25 48 C 37.690705 48 48 37.690705 48 25 C 48 12.309295 37.690705 2 25 2 z M 25 4 C 36.609824 4 46 13.390176 46 25 C 46 36.609824 36.609824 46 25 46 C 13.390176 46 4 36.609824 4 25 C 4 13.390176 13.390176 4 25 4 z M 18.449219 8.9921875 C 18.192214 8.9831528 17.938688 8.9909204 17.689453 9.015625 C 17.024826 9.081504 16.390286 9.271943 15.796875 9.6015625 C 14.610016 10.260822 13.817004 11.412833 13.400391 12.773438 C 12.983778 14.13404 12.905385 15.725568 13.097656 17.474609 C 13.147274 17.925968 13.216883 18.389633 13.302734 18.861328 C 13.06682 18.948783 12.823038 19.032196 12.597656 19.125 C 10.976663 19.792468 9.6293913 20.594107 8.6386719 21.558594 C 7.6479525 22.52308 7 23.705377 7 25 C 7 26.294623 7.6479525 27.47692 8.6386719 28.441406 C 9.6293913 29.405893 10.976663 30.207532 12.597656 30.875 C 12.823038 30.967804 13.06682 31.051217 13.302734 31.138672 C 13.216724 31.61104 13.147338 32.075415 13.097656 32.527344 C 12.905384 34.276324 12.983771 35.866028 13.400391 37.226562 C 13.81701 38.587097 14.610046 39.741148 15.796875 40.400391 C 18.170876 41.719351 21.210069 40.787602 24.154297 38.726562 C 24.435804 38.5295 24.71802 38.311265 25 38.091797 C 25.282013 38.311265 25.564196 38.5295 25.845703 38.726562 C 28.789931 40.787602 31.827171 41.719351 34.201172 40.400391 C 35.38803 39.741132 36.181043 38.587166 36.597656 37.226562 C 37.014269 35.86596 37.092662 34.276385 36.900391 32.527344 C 36.850773 32.075985 36.781164 31.612377 36.695312 31.140625 C 36.932049 31.052896 37.17621 30.968114 37.402344 30.875 C 39.023337 30.207532 40.370609 29.405893 41.361328 28.441406 C 42.352048 27.47692 43 26.294623 43 25 C 43 23.705377 42.352048 22.52308 41.361328 21.558594 C 40.370609 20.594107 39.023337 19.792468 37.402344 19.125 C 37.176962 19.032196 36.93318 18.948783 36.697266 18.861328 C 36.783184 18.389639 36.852709 17.925955 36.902344 17.474609 C 37.094683 15.725618 37.01628 14.13606 36.599609 12.775391 C 36.182939 11.414721 35.38816 10.261036 34.201172 9.6015625 C 33.607672 9.2718224 32.973292 9.0815747 32.308594 9.015625 C 30.314498 8.817776 28.053874 9.7276579 25.845703 11.273438 C 25.563468 11.471009 25.280789 11.690063 24.998047 11.910156 C 24.716477 11.691086 24.435398 11.472148 24.154297 11.275391 C 22.222076 9.922931 20.248251 9.0554303 18.449219 8.9921875 z M 32.064453 11.021484 C 32.505524 11.054161 32.897469 11.1646 33.230469 11.349609 C 33.89648 11.719636 34.380858 12.359966 34.6875 13.361328 C 34.994142 14.36269 35.084973 15.701726 34.914062 17.255859 C 34.879449 17.570605 34.827249 17.899516 34.771484 18.230469 C 33.380197 17.842779 31.857669 17.537124 30.240234 17.328125 C 29.063718 15.779341 27.822409 14.40207 26.560547 13.236328 C 26.704233 13.129221 26.849691 13.011861 26.992188 12.912109 C 28.311573 11.988504 29.538319 11.412685 30.601562 11.160156 C 31.133184 11.033892 31.623382 10.988808 32.064453 11.021484 z M 17.933594 11.023438 C 18.374217 10.991212 18.864863 11.035826 19.396484 11.162109 C 20.459727 11.414676 21.686402 11.990508 23.005859 12.914062 C 23.147952 13.01352 23.292272 13.131519 23.435547 13.238281 C 22.174153 14.403994 20.935906 15.781842 19.759766 17.330078 C 18.142441 17.539076 16.619719 17.842803 15.228516 18.230469 C 15.172794 17.899505 15.120539 17.57062 15.085938 17.255859 C 14.915083 15.701651 15.005898 14.360709 15.3125 13.359375 C 15.619106 12.358041 16.10389 11.71935 16.769531 11.349609 C 17.10237 11.164729 17.492971 11.055663 17.933594 11.023438 z M 24.998047 14.515625 C 25.824747 15.263986 26.651912 16.130263 27.464844 17.080078 C 26.657136 17.033254 25.838699 17 25 17 C 24.160626 17 23.341533 17.03318 22.533203 17.080078 C 23.345458 16.130783 24.172051 15.26376 24.998047 14.515625 z M 25 19 C 26.439984 19 27.829188 19.084312 29.158203 19.226562 C 29.743336 20.036041 30.312299 20.888486 30.851562 21.787109 C 31.496388 22.86164 32.061576 23.937853 32.558594 25 C 32.061407 26.062476 31.496725 27.137798 30.851562 28.212891 C 30.312293 29.111523 29.743188 29.963805 29.158203 30.773438 C 27.829188 30.915688 26.439984 31 25 31 C 23.559318 31 22.169437 30.915821 20.839844 30.773438 C 20.2547 29.963805 19.685754 29.111523 19.146484 28.212891 C 18.502138 27.139158 17.937952 26.065074 17.441406 25.003906 C 17.938782 23.940672 18.502944 22.862888 19.148438 21.787109 L 19.146484 21.787109 C 19.685754 20.888477 20.2547 20.036195 20.839844 19.226562 C 22.169437 19.084179 23.559318 19 25 19 z M 31.845703 19.615234 C 32.721919 19.779455 33.558568 19.971601 34.337891 20.191406 C 34.131906 20.9608 33.882193 21.752814 33.580078 22.568359 C 33.261 21.96571 32.928353 21.360957 32.566406 20.757812 C 32.331881 20.367002 32.089248 19.991061 31.845703 19.615234 z M 18.152344 19.617188 C 17.909075 19.992601 17.665877 20.367484 17.431641 20.757812 C 17.069698 21.361025 16.737045 21.965674 16.417969 22.568359 C 16.116082 21.752882 15.867909 20.960752 15.662109 20.191406 C 16.440755 19.971792 17.276964 19.781317 18.152344 19.617188 z M 13.759766 20.824219 C 14.125323 22.172333 14.617972 23.571839 15.242188 25 C 14.618 26.428265 14.125386 27.827602 13.759766 29.175781 C 13.62822 29.125159 13.486288 29.077649 13.359375 29.025391 C 11.903974 28.426108 10.762977 27.718264 10.033203 27.007812 C 9.303429 26.297362 9 25.638374 9 25 C 9 24.361626 9.303429 23.702638 10.033203 22.992188 C 10.762977 22.281737 11.903974 21.573892 13.359375 20.974609 C 13.486288 20.922351 13.62822 20.874841 13.759766 20.824219 z M 36.240234 20.824219 C 36.37178 20.874841 36.513712 20.922351 36.640625 20.974609 C 38.096026 21.573892 39.237023 22.281736 39.966797 22.992188 C 40.696571 23.702637 41 24.361626 41 25 C 41 25.638374 40.696571 26.297362 39.966797 27.007812 C 39.237023 27.718263 38.096026 28.426108 36.640625 29.025391 C 36.513169 29.077873 36.370409 29.124949 36.238281 29.175781 C 35.872664 27.827545 35.380047 26.428255 34.755859 25 C 35.380402 23.571752 35.874375 22.172401 36.240234 20.824219 z M 25 22 C 23.35499 22 22 23.35499 22 25 C 22 26.64501 23.35499 28 25 28 C 26.64501 28 28 26.64501 28 25 C 28 23.35499 26.64501 22 25 22 z M 25 24 C 25.564129 24 26 24.435871 26 25 C 26 25.564129 25.564129 26 25 26 C 24.435871 26 24 25.564129 24 25 C 24 24.435871 24.435871 24 25 24 z M 33.580078 27.433594 C 33.882135 28.249169 34.129977 29.041126 34.335938 29.810547 C 33.55731 30.030072 32.721015 30.220715 31.845703 30.384766 C 32.089248 30.008912 32.331883 29.632994 32.566406 29.242188 C 32.928296 28.639138 33.260975 28.036083 33.580078 27.433594 z M 16.417969 27.435547 C 16.73677 28.037522 17.070058 28.639649 17.431641 29.242188 C 17.665877 29.632516 17.909075 30.007399 18.152344 30.382812 C 17.277868 30.218852 16.442014 30.029882 15.664062 29.810547 C 15.869825 29.041901 16.116293 28.250288 16.417969 27.435547 z M 15.228516 31.769531 C 16.619719 32.157197 18.142441 32.460924 19.759766 32.669922 C 20.936846 34.219395 22.177021 35.597361 23.439453 36.763672 C 23.295777 36.870779 23.150309 36.988139 23.007812 37.087891 C 20.369042 38.935102 18.10153 39.392383 16.769531 38.652344 C 16.10386 38.282586 15.619099 37.641872 15.3125 36.640625 C 15.005901 35.639378 14.915084 34.300238 15.085938 32.746094 C 15.120607 32.430728 15.172608 32.101193 15.228516 31.769531 z M 34.771484 31.769531 C 34.827393 32.10121 34.879393 32.430715 34.914062 32.746094 C 35.084916 34.300303 34.992152 35.639291 34.685547 36.640625 C 34.378941 37.641959 33.89611 38.282603 33.230469 38.652344 C 31.89847 39.392383 29.630958 38.935102 26.992188 37.087891 C 26.849691 36.988139 26.704233 36.870779 26.560547 36.763672 C 27.822406 35.597583 29.063703 34.220988 30.240234 32.671875 C 31.857669 32.462876 33.380197 32.157221 34.771484 31.769531 z M 22.533203 32.919922 C 23.341533 32.96682 24.160626 33 25 33 C 25.839374 33 26.658467 32.96682 27.466797 32.919922 C 26.654037 33.870185 25.826586 34.737635 25 35.486328 C 24.173311 34.737742 23.346146 33.870021 22.533203 32.919922 z"/></svg>