<?xml version="1.0" encoding="UTF-8"?>
<svg width="27px" height="30px" viewBox="0 0 27 30" version="1.1" xmlns="http://www.w3.org/2000/svg" xmlns:xlink="http://www.w3.org/1999/xlink">
    <title>Artboard</title>
    <defs>
        <rect id="path-1" x="0" y="0" width="25" height="30.01"></rect>
    </defs>
    <g id="Artboard" stroke="none" stroke-width="1" fill="none" fill-rule="evenodd">
        <g id="Uniroma1" transform="translate(1.000000, 0.000000)">
            <mask id="mask-2" fill="white">
                <use xlink:href="#path-1"></use>
            </mask>
            <g id="Rectangle"></g>
            <g id="id1" mask="url(#mask-2)">
                <g id="id3">
                    <rect id="Rectangle" x="0" y="0" width="25.02" height="30.03"></rect>
                    <path d="M12.5,0 C5.61,0 0,6.73 0,15.01 C0,23.28 5.61,30.01 12.5,30.01 C19.4,30.01 25.01,23.28 25.01,15.01 C25.01,6.73 19.4,0 12.5,0 Z" id="Path" fill="#6F0A19"></path>
                </g>
                <g id="id21" transform="translate(0.450000, 0.550000)">
                    <rect id="Rectangle" x="0" y="0" width="24.11" height="28.92"></rect>
                    <path d="M21.74,18.91 C21.7,19.05 21.59,19.26 21.4,19.42 L21.24,19.28 C21.42,19.17 21.55,18.97 21.59,18.86 C21.67,18.6 21.61,18.37 21.38,18.3 C21.27,18.26 21.17,18.34 21.07,18.44 C20.92,18.58 20.79,18.76 20.61,18.86 C20.46,18.95 20.3,19 20.08,18.93 C19.77,18.83 19.67,18.46 19.78,18.11 C19.82,17.99 19.89,17.85 19.98,17.67 C20.12,17.71 20.23,17.75 20.31,17.77 C20.36,17.79 20.4,17.81 20.38,17.88 C20.36,17.92 20.34,17.94 20.18,17.92 C20.11,17.91 20.01,17.97 19.94,18.18 C19.87,18.4 19.91,18.61 20.12,18.68 C20.27,18.73 20.49,18.46 20.58,18.36 C20.68,18.25 20.8,18.13 20.94,18.06 C21.06,17.99 21.22,17.97 21.39,18.03 C21.75,18.15 21.86,18.54 21.74,18.91 Z M19.53,19.32 C19.52,19.37 19.57,19.38 19.61,19.4 L21.22,20.18 L21.1,20.51 L19.46,19.73 C19.36,19.68 19.38,19.68 19.32,19.77 C19.29,19.81 19.27,19.87 19.22,19.85 C19.17,19.82 19.16,19.78 19.19,19.72 C19.23,19.64 19.29,19.52 19.32,19.45 C19.35,19.39 19.39,19.28 19.42,19.2 C19.45,19.13 19.49,19.11 19.54,19.14 C19.58,19.16 19.57,19.21 19.53,19.32 Z M20.24,21.05 C20.45,21.18 20.53,21.4 20.4,21.62 C20.34,21.7 20.28,21.78 20.21,21.85 C20.19,21.87 20.19,21.87 20.17,21.86 L19.47,21.41 L19.53,21.31 C19.75,20.94 20.01,20.9 20.24,21.05 Z M19.29,20.7 C19.46,20.81 19.57,20.96 19.41,21.22 L19.35,21.33 L18.77,20.95 C18.72,20.92 18.7,20.92 18.73,20.87 L18.76,20.83 C18.88,20.62 19.08,20.56 19.29,20.7 Z M20.4,20.73 C20.12,20.55 19.87,20.66 19.67,20.86 C19.69,20.65 19.61,20.48 19.42,20.36 C19.2,20.22 18.88,20.33 18.7,20.63 C18.64,20.73 18.59,20.83 18.53,20.93 C18.49,21 18.42,21.11 18.38,21.15 C18.35,21.18 18.32,21.22 18.29,21.26 C18.26,21.31 18.28,21.36 18.32,21.38 C18.36,21.41 18.37,21.4 18.43,21.31 C18.5,21.2 18.52,21.22 18.61,21.28 L18.68,21.32 L20.14,22.26 C20.14,22.26 20.27,22.02 20.3,21.97 C20.36,21.88 20.43,21.84 20.49,21.73 C20.71,21.37 20.71,20.93 20.4,20.73 Z M17.1,23.06 C17.06,23.13 17.07,23.23 17.09,23.29 L17.49,25.17 L17.31,25.33 C16.64,24.86 16.19,24.61 15.64,24.21 C15.6,24.18 15.58,24.15 15.53,24.18 C15.44,24.24 15.42,24.23 15.39,24.19 C15.36,24.15 15.37,24.1 15.43,24.07 C15.51,24.03 15.63,23.95 15.7,23.92 C15.78,23.87 15.84,23.91 15.91,23.95 L17.25,24.89 L16.89,23.32 C16.87,23.22 16.68,23.4 16.63,23.32 C16.6,23.28 16.62,23.24 16.68,23.21 C16.78,23.14 16.95,22.97 17.04,22.86 C17.08,22.81 17.14,22.82 17.17,22.86 C17.18,22.89 17.15,22.96 17.1,23.06 Z M14.15,24.83 C14.03,24.89 14.02,24.92 14.06,25.08 C14.11,25.27 14.52,26.81 14.52,26.81 L14.15,26.9 L13.75,25.33 L13.34,26.9 L13.17,26.96 L12.25,25.58 L12.35,27.15 L12.03,27.24 L11.91,25.45 C11.9,25.27 11.87,25.23 11.76,25.22 C11.67,25.21 11.63,25.18 11.63,25.14 C11.62,25.06 11.68,25.05 11.71,25.05 C11.8,25.04 12.03,25.06 12.11,25.05 C12.17,25.05 12.21,25.06 12.26,25.13 L13.21,26.59 L13.64,24.93 C13.67,24.85 13.72,24.81 13.78,24.79 C13.86,24.77 14.05,24.7 14.13,24.67 C14.16,24.67 14.24,24.66 14.25,24.73 C14.26,24.78 14.22,24.79 14.15,24.83 Z M11.39,25.22 C11.34,25.22 11.3,25.25 11.26,25.3 L10.1,26.95 L9.86,26.92 C9.73,26.09 9.65,25.58 9.56,24.89 C9.55,24.85 9.55,24.81 9.5,24.79 C9.4,24.76 9.39,24.74 9.4,24.69 C9.41,24.64 9.45,24.62 9.51,24.64 C9.59,24.67 9.73,24.71 9.8,24.74 C9.89,24.77 9.9,24.84 9.91,24.92 L10.12,26.58 L11.04,25.25 C11.1,25.17 10.84,25.15 10.86,25.05 C10.87,25 10.91,24.99 10.98,25.01 C11.05,25.04 11.37,25.07 11.46,25.07 C11.52,25.07 11.55,25.09 11.55,25.15 C11.54,25.19 11.5,25.2 11.39,25.22 Z M9.02,24.59 C8.97,24.57 8.96,24.63 8.94,24.67 L8.15,26.28 L7.83,26.14 L8.63,24.51 C8.68,24.4 8.68,24.42 8.59,24.36 C8.55,24.33 8.5,24.3 8.52,24.25 C8.55,24.2 8.59,24.19 8.65,24.22 C8.72,24.27 8.84,24.34 8.9,24.37 C8.96,24.4 9.07,24.45 9.15,24.48 C9.2,24.51 9.22,24.55 9.2,24.6 C9.18,24.64 9.13,24.63 9.02,24.59 Z M7.53,24.75 C7.21,25.18 6.81,25.35 6.38,25 C6.26,24.91 6.18,24.84 6.13,24.76 C6.09,24.71 6.1,24.71 6.14,24.64 L7.11,23.37 C7.15,23.31 7.18,23.31 7.23,23.35 L7.44,23.52 C7.98,23.95 7.81,24.38 7.53,24.75 Z M7.86,24.96 C8.22,24.47 8.09,23.84 7.59,23.44 C7.47,23.35 7.39,23.28 7.32,23.23 C7.26,23.19 7.2,23.14 7.14,23.1 C7.08,23.05 7,22.98 6.97,22.94 C6.94,22.9 6.91,22.86 6.87,22.84 C6.83,22.81 6.78,22.8 6.75,22.85 C6.71,22.9 6.76,22.93 6.81,22.98 C6.9,23.06 6.89,23.07 6.82,23.16 L5.71,24.63 C5.88,24.75 5.98,24.81 6.12,24.95 C6.18,25.01 6.23,25.07 6.27,25.1 C6.84,25.56 7.46,25.48 7.86,24.96 Z M6.54,22.68 C6.51,22.65 6.46,22.64 6.4,22.66 L4.53,23.19 L4.37,23.01 C4.77,22.29 5.03,21.81 5.37,21.22 C5.4,21.17 5.42,21.15 5.39,21.1 C5.33,21.01 5.34,20.99 5.37,20.96 C5.41,20.92 5.46,20.93 5.49,20.99 C5.54,21.07 5.62,21.19 5.66,21.26 C5.71,21.34 5.68,21.4 5.64,21.47 L4.78,22.91 L6.3,22.47 C6.4,22.44 6.2,22.26 6.28,22.2 C6.32,22.17 6.36,22.19 6.4,22.24 C6.44,22.32 6.49,22.4 6.53,22.45 C6.57,22.51 6.61,22.55 6.67,22.62 C6.71,22.67 6.71,22.71 6.67,22.75 C6.65,22.76 6.62,22.76 6.54,22.68 Z M5.28,20.85 C5.26,20.86 5.24,20.85 5.17,20.86 L5.13,20.72 L4.86,20.15 L3.2,21 L3.01,20.69 L4.7,19.83 C4.63,19.67 4.49,19.38 4.49,19.38 C4.41,19.21 4.39,19.27 4.27,19.3 C4.22,19.32 4.16,19.33 4.14,19.29 C4.11,19.23 4.14,19.2 4.19,19.17 C4.26,19.14 4.34,19.1 4.42,19.06 C4.52,19.02 4.55,19.06 4.58,19.14 C4.62,19.23 4.65,19.3 4.7,19.42 C4.86,19.79 5.04,20.15 5.21,20.51 C5.25,20.58 5.29,20.64 5.33,20.69 C5.35,20.71 5.36,20.73 5.37,20.74 C5.37,20.76 5.39,20.81 5.34,20.84 C5.31,20.86 5.3,20.86 5.28,20.85 Z M2.32,18.97 C2.27,18.84 2.23,18.6 2.29,18.35 L2.5,18.37 C2.43,18.57 2.44,18.81 2.47,18.92 C2.56,19.18 2.74,19.32 2.96,19.24 C3.07,19.2 3.11,19.07 3.13,18.94 C3.17,18.73 3.17,18.5 3.25,18.31 C3.32,18.15 3.41,18.01 3.63,17.93 C3.94,17.82 4.24,18.05 4.35,18.4 C4.39,18.52 4.42,18.67 4.45,18.87 C4.31,18.93 4.21,18.96 4.12,18.99 C4.08,19.01 4.03,19.02 4.01,18.95 C4,18.91 4,18.87 4.15,18.79 C4.21,18.76 4.25,18.65 4.18,18.44 C4.11,18.22 3.95,18.08 3.74,18.15 C3.6,18.2 3.58,18.55 3.56,18.69 C3.55,18.84 3.53,19.01 3.46,19.16 C3.4,19.29 3.28,19.4 3.11,19.46 C2.75,19.59 2.44,19.34 2.32,18.97 Z M18.28,22.27 C18.44,22.41 18.62,22.65 18.34,22.97 C18.31,23 18.3,23.02 18.28,23.03 L17.65,22.46 C17.63,22.44 17.62,22.42 17.65,22.38 L17.72,22.3 C17.93,22.05 18.09,22.1 18.28,22.27 Z M19.8,22.78 C19.78,22.76 19.75,22.76 19.73,22.76 C19.67,22.78 19.59,22.78 19.52,22.78 C19.23,22.74 18.95,22.72 18.65,22.68 C18.71,22.5 18.72,22.17 18.48,21.95 C18.24,21.73 17.92,21.84 17.72,22.07 C17.63,22.17 17.55,22.29 17.46,22.39 C17.42,22.45 17.3,22.56 17.26,22.6 C17.22,22.63 17.18,22.66 17.15,22.69 C17.12,22.73 17.11,22.77 17.15,22.81 C17.2,22.85 17.23,22.82 17.28,22.77 C17.37,22.68 17.39,22.69 17.46,22.76 L18.8,23.99 L19,23.69 L18.39,23.13 L18.42,23.1 C18.45,23.06 18.47,23.04 18.5,22.99 L19.17,23.07 C19.39,23.09 19.56,23.15 19.73,22.95 C19.78,22.9 19.82,22.8 19.8,22.78 Z M12.6,23.7 C12.59,23.76 12.65,23.82 12.71,23.76 C12.89,23.58 13.11,23.21 13.25,22.61 C13.7,20.74 13.37,18.34 13.37,18.34 C13.23,17.32 14.15,16.74 14.92,16.37 C15.19,16.24 15.42,16.04 15.56,15.88 C15.7,15.71 15.82,15.46 15.9,15.19 C16.14,14.38 16.6,13.46 17.64,13.41 C17.65,13.41 20.1,13.23 21.9,12.47 C22.48,12.22 22.81,11.93 22.97,11.72 C23.01,11.65 22.94,11.6 22.88,11.62 C21.19,12.3 19.56,12.64 17.77,12.66 L17.6,12.66 C16.98,12.68 16.43,12.94 16.03,13.35 C15.41,14 15.57,15.14 15.16,15.59 C14.75,16.04 13.72,16.09 13.1,16.8 C12.72,17.23 12.51,17.83 12.61,18.43 L12.63,18.62 C12.93,20.34 12.98,21.95 12.6,23.7 Z M13.64,23.07 C13.62,23.11 13.66,23.13 13.7,23.11 C13.86,22.99 14.02,22.7 14.24,22.25 C14.49,21.74 14.99,20.14 15.01,18.84 C15.02,18.34 15,17.84 14.94,17.35 L14.92,17.35 C14.53,17.39 14.23,17.71 14.23,18.08 C14.23,18.13 14.24,18.18 14.24,18.23 C14.37,19.84 14.16,21.48 13.64,23.07 Z M14.81,21.85 C14.77,21.93 14.81,21.95 14.87,21.88 C15.14,21.58 15.43,21.28 15.63,20.92 C16.22,19.83 16.49,18.64 16.49,17.47 C16.49,17.22 16.47,16.97 16.45,16.72 C16.44,16.67 16.44,16.62 16.45,16.61 C16.46,16.59 16.49,16.59 16.55,16.59 C16.81,16.57 17.06,16.54 17.31,16.49 C18.48,16.29 19.63,15.83 20.62,15.05 C20.95,14.8 21.2,14.47 21.46,14.16 C21.51,14.09 21.49,14.05 21.42,14.1 C19.95,15.13 18.31,15.72 16.62,15.82 C16.43,15.82 16.19,15.91 16,16.07 C15.88,16.16 15.79,16.28 15.76,16.4 C15.69,16.58 15.66,16.77 15.68,16.92 C15.89,18.57 15.58,20.25 14.81,21.85 Z M18.43,14.83 C19.73,14.58 21.26,13.84 21.72,13.51 C22.13,13.22 22.4,13.01 22.49,12.83 C22.51,12.79 22.48,12.76 22.44,12.78 C20.94,13.57 19.32,14.04 17.68,14.2 C17.63,14.2 17.58,14.21 17.53,14.21 C17.15,14.29 16.88,14.63 16.91,15.03 C17.42,15 17.93,14.93 18.43,14.83 Z M12.1,14.49 C12.29,14.49 12.45,14.57 12.45,14.64 C12.45,14.7 12.29,14.79 12.1,14.79 C11.9,14.79 11.74,14.7 11.74,14.64 C11.74,14.57 11.9,14.49 12.1,14.49 Z M11.16,13.91 C10.55,13.91 10.59,13.76 10.57,13.71 C10.57,13.71 10.74,13.4 11.17,13.4 C11.59,13.4 11.71,13.78 11.71,13.78 C11.71,13.78 11.61,13.91 11.16,13.91 Z M12.1,15.63 C11.72,15.63 11.41,15.32 11.41,15.23 C11.41,15.14 12.78,15.14 12.78,15.23 C12.78,15.32 12.48,15.63 12.1,15.63 Z M13.01,13.91 C12.56,13.91 12.47,13.78 12.47,13.78 C12.47,13.78 12.58,13.4 13.01,13.4 C13.44,13.4 13.6,13.71 13.6,13.71 C13.58,13.76 13.62,13.91 13.01,13.91 Z M14.02,14.13 C14,13.84 13.96,13.32 13.95,13.05 C13.16,13.05 12.32,12.45 12.09,12.07 C11.85,12.45 11.02,13.05 10.23,13.05 C10.22,13.32 10.18,13.84 10.15,14.13 C10.1,14.65 10.28,15.19 10.63,15.58 C10.81,15.78 11.03,15.98 11.28,16.09 C11.3,16.1 11.33,16.11 11.35,16.12 L11.47,16.17 C11.54,16.21 11.57,16.26 11.64,16.31 C11.82,16.44 12.08,16.43 12.09,16.43 C12.1,16.43 12.35,16.44 12.53,16.31 C12.6,16.26 12.64,16.21 12.71,16.17 L12.82,16.12 C12.85,16.11 12.87,16.1 12.89,16.09 C13.14,15.98 13.36,15.78 13.54,15.58 C13.89,15.19 14.08,14.65 14.02,14.13 Z M10.58,10.45 C9.94,10.84 9.75,10.85 9.75,10.85 C9.75,10.85 9.75,11.52 10.71,11.16 C11.05,11.03 12.07,10.45 11.9,10.21 C11.61,9.79 11.11,10.13 10.58,10.45 Z M11.48,11.33 C9.81,12.29 9.21,11.4 9.21,11.4 C9.21,11.4 8.57,12.13 9.64,12.42 C10.75,12.72 11.5,12.04 11.68,11.91 C12.02,11.66 12.09,10.98 11.48,11.33 Z M13.59,10.45 C14.23,10.84 14.45,10.85 14.45,10.85 C14.45,10.85 14.43,11.52 13.46,11.16 C13.13,11.03 12.1,10.45 12.27,10.21 C12.56,9.79 13.07,10.13 13.59,10.45 Z M12.69,11.33 C14.37,12.29 14.98,11.4 14.98,11.4 C14.98,11.4 15.59,12.13 14.54,12.42 C13.42,12.72 12.67,12.04 12.49,11.91 C12.16,11.66 12.09,10.98 12.69,11.33 Z M15.28,12.57 C15.22,12.66 14.89,13.05 14.39,13.1 C14.4,13.31 14.4,13.58 14.41,13.8 C15.24,13.69 15.59,13.07 15.28,12.57 Z M14.43,14.41 C14.4,14.65 14.34,14.89 14.24,15.12 C14.81,15.01 15.17,14.68 15.02,13.98 C14.97,14.09 14.73,14.35 14.43,14.35 L14.43,14.41 Z M9.76,13.82 C9.78,13.6 9.78,13.33 9.79,13.12 C9.27,13.06 8.95,12.68 8.88,12.58 C8.57,13.08 8.92,13.7 9.76,13.82 Z M9.75,14.36 C9.44,14.36 9.17,14.1 9.12,13.99 C8.97,14.7 9.36,15.03 9.93,15.13 C9.83,14.9 9.77,14.66 9.75,14.42 L9.75,14.36 Z M12.06,0 C5.41,0 0.01,6.48 0.01,14.46 C0.01,22.43 5.41,28.91 12.06,28.91 C18.7,28.91 24.1,22.43 24.1,14.46 C24.1,6.48 18.7,0 12.06,0 Z M12.06,28.48 C5.64,28.48 0.43,22.19 0.43,14.46 C0.43,6.72 5.64,0.43 12.06,0.43 C18.47,0.43 23.68,6.72 23.68,14.46 C23.68,22.19 18.47,28.48 12.06,28.48 Z M15.95,12.29 C15.92,12.91 16.64,11.85 16.05,11.02 C15.57,10.34 15.13,9.41 15.72,8.57 C15.73,8.57 17.08,6.58 17.58,4.72 C17.74,4.13 17.71,3.69 17.64,3.45 C17.62,3.37 17.54,3.39 17.52,3.45 C17.02,5.17 16.29,6.63 15.22,8 L15.12,8.14 C14.75,8.62 14.62,9.21 14.7,9.77 C14.85,10.85 16,11.39 15.95,12.29 Z M16.28,9.16 C16.11,9.5 16.21,9.92 16.53,10.14 C16.83,9.73 17.09,9.3 17.32,8.86 C17.91,7.71 18.26,6.07 18.28,5.51 C18.31,5.02 18.31,4.68 18.23,4.5 C18.21,4.46 18.16,4.46 18.16,4.5 C17.86,6.15 17.24,7.68 16.36,9.03 L16.28,9.16 Z M16.98,10.87 C16.77,11.16 16.67,11.85 17.09,12.02 C17.38,12.13 18.26,12.03 18.65,11.88 C18.72,11.85 18.71,11.75 18.65,11.73 C18.31,11.59 17.78,11.45 17.55,11.4 C18.33,10.23 18.83,8.82 18.83,7.31 C18.83,6.91 18.72,6.51 18.63,6.12 C18.61,6.03 18.57,6.03 18.57,6.12 C18.48,7.88 17.94,9.51 16.98,10.87 Z M8.49,8.57 C9.08,9.41 8.64,10.34 8.16,11.02 C7.57,11.85 8.29,12.91 8.26,12.29 C8.21,11.39 9.37,10.85 9.52,9.77 C9.6,9.21 9.47,8.62 9.09,8.14 L8.99,8 C7.93,6.63 7.19,5.17 6.69,3.45 C6.67,3.39 6.59,3.37 6.57,3.45 C6.5,3.69 6.47,4.13 6.63,4.72 C7.13,6.58 8.48,8.57 8.49,8.57 Z M6.89,8.86 C7.12,9.3 7.38,9.73 7.66,10.15 C8,9.92 8.1,9.5 7.93,9.16 C7.9,9.12 7.87,9.08 7.85,9.03 C6.97,7.68 6.35,6.15 6.06,4.5 C6.05,4.46 6,4.46 5.99,4.5 C5.9,4.68 5.9,5.02 5.93,5.51 C5.95,6.07 6.3,7.71 6.89,8.86 Z M6.66,11.4 C6.43,11.45 5.9,11.59 5.56,11.73 C5.5,11.75 5.49,11.85 5.56,11.88 C5.95,12.03 6.83,12.13 7.12,12.02 C7.54,11.85 7.45,11.16 7.23,10.87 C6.27,9.51 5.73,7.88 5.65,6.12 C5.64,6.03 5.6,6.03 5.58,6.12 C5.49,6.51 5.39,6.91 5.39,7.31 C5.39,8.82 5.89,10.23 6.66,11.4 Z M11.59,18.62 C11.59,18.62 11.61,18.43 11.62,18.43 C11.71,17.83 11.5,17.23 11.13,16.8 C10.51,16.09 9.47,16.04 9.05,15.59 C8.65,15.14 8.8,14 8.18,13.35 C7.78,12.94 7.23,12.68 6.61,12.66 L6.44,12.66 C4.66,12.64 3.02,12.3 1.33,11.62 C1.27,11.6 1.2,11.65 1.25,11.72 C1.4,11.93 1.73,12.22 2.31,12.47 C4.11,13.23 6.57,13.41 6.57,13.41 C7.62,13.46 8.07,14.38 8.31,15.19 C8.39,15.46 8.52,15.71 8.66,15.88 C8.79,16.04 9.02,16.24 9.29,16.37 C10.07,16.74 10.99,17.32 10.86,18.34 C10.86,18.34 10.53,20.74 10.97,22.61 C11.12,23.21 11.33,23.58 11.51,23.76 C11.57,23.82 11.64,23.76 11.62,23.7 C11.24,21.95 11.29,20.34 11.59,18.62 Z M9.98,18.23 C9.99,18.18 9.99,18.13 9.99,18.08 C9.99,17.71 9.69,17.39 9.29,17.35 L9.27,17.35 C9.21,17.84 9.19,18.34 9.2,18.84 C9.22,20.14 9.73,21.74 9.98,22.25 C10.2,22.7 10.36,22.99 10.53,23.11 C10.56,23.13 10.6,23.11 10.59,23.07 C10.06,21.48 9.85,19.84 9.98,18.23 Z M8.53,16.92 C8.55,16.77 8.53,16.58 8.45,16.4 C8.42,16.28 8.33,16.16 8.22,16.07 C8.02,15.91 7.78,15.82 7.6,15.82 C5.91,15.72 4.26,15.13 2.8,14.1 C2.72,14.05 2.7,14.09 2.75,14.16 C3.01,14.47 3.26,14.8 3.59,15.05 C4.58,15.83 5.73,16.29 6.9,16.49 C7.15,16.54 7.41,16.57 7.66,16.59 C7.72,16.59 7.75,16.59 7.76,16.61 C7.77,16.62 7.78,16.67 7.76,16.72 C7.74,16.97 7.73,17.22 7.73,17.47 C7.73,18.64 7.99,19.83 8.59,20.92 C8.78,21.28 9.07,21.58 9.35,21.88 C9.41,21.95 9.45,21.93 9.41,21.85 C8.63,20.25 8.33,18.57 8.53,16.92 Z M7.3,15.03 C7.33,14.63 7.06,14.29 6.69,14.21 C6.63,14.21 6.58,14.2 6.53,14.2 C4.89,14.04 3.27,13.57 1.77,12.78 C1.73,12.76 1.7,12.79 1.72,12.83 C1.81,13.01 2.08,13.22 2.49,13.51 C2.96,13.84 4.48,14.58 5.78,14.83 C6.28,14.93 6.79,15 7.3,15.03 Z M11.81,4.18 C11.42,4.62 11.35,5.79 11.31,6.31 C10.92,5.96 10.35,5.45 9.82,5.44 C9.76,5.44 9.68,5.45 9.75,5.53 C10.01,5.81 10.62,6.46 10.9,6.77 C11.04,6.92 11.18,6.97 11.32,6.98 C11.4,6.98 11.45,6.98 11.49,6.97 C11.51,6.97 11.59,6.94 11.6,6.93 C11.65,6.9 11.7,6.86 11.74,6.82 C11.85,6.71 11.92,6.57 11.92,6.37 C11.92,5.93 11.92,4.72 11.92,4.25 C11.92,4.13 11.85,4.13 11.81,4.18 Z M12.3,4.25 C12.3,4.72 12.3,5.93 12.3,6.37 C12.3,6.57 12.37,6.71 12.46,6.81 C12.52,6.86 12.57,6.9 12.61,6.93 C12.63,6.94 12.7,6.97 12.73,6.97 C12.77,6.98 12.82,6.98 12.88,6.98 C13.03,6.97 13.18,6.92 13.31,6.77 C13.6,6.46 14.21,5.81 14.46,5.53 C14.54,5.45 14.46,5.44 14.39,5.44 C13.86,5.45 13.3,5.96 12.91,6.31 C12.86,5.79 12.78,4.62 12.4,4.18 C12.35,4.13 12.3,4.13 12.3,4.25 Z" id="Shape" fill="#FFFFFF"></path>
                </g>
            </g>
        </g>
    </g>
</svg>