<svg fill="#000000" xmlns="http://www.w3.org/2000/svg"  viewBox="0 0 80 80" width="80px" height="80px"><path d="M 21 10 C 14.935 10 10 14.935 10 21 L 10 59 C 10 65.065 14.935 70 21 70 L 59 70 C 65.065 70 70 65.065 70 59 L 70 21 C 70 14.935 65.065 10 59 10 L 21 10 z M 21 12 L 59 12 C 63.962 12 68 16.037 68 21 L 68 59 C 68 63.963 63.962 68 59 68 L 21 68 C 16.038 68 12 63.963 12 59 L 12 21 C 12 16.037 16.038 12 21 12 z M 24.470703 15.037109 C 23.920703 15.037109 23.470703 15.487109 23.470703 16.037109 C 23.470703 16.587109 23.920703 17.037109 24.470703 17.037109 C 25.020703 17.037109 25.470703 16.587109 25.470703 16.037109 C 25.470703 15.487109 25.020703 15.037109 24.470703 15.037109 z M 28.470703 15.037109 C 27.920703 15.037109 27.470703 15.487109 27.470703 16.037109 C 27.470703 16.587109 27.920703 17.037109 28.470703 17.037109 C 29.020703 17.037109 29.470703 16.587109 29.470703 16.037109 C 29.470703 15.487109 29.020703 15.037109 28.470703 15.037109 z M 32.470703 15.037109 C 31.920703 15.037109 31.470703 15.487109 31.470703 16.037109 C 31.470703 16.587109 31.920703 17.037109 32.470703 17.037109 C 33.020703 17.037109 33.470703 16.587109 33.470703 16.037109 C 33.470703 15.487109 33.020703 15.037109 32.470703 15.037109 z M 36.470703 15.037109 C 35.920703 15.037109 35.470703 15.487109 35.470703 16.037109 C 35.470703 16.587109 35.920703 17.037109 36.470703 17.037109 C 37.020703 17.037109 37.470703 16.587109 37.470703 16.037109 C 37.470703 15.487109 37.020703 15.037109 36.470703 15.037109 z M 40.470703 15.037109 C 39.920703 15.037109 39.470703 15.487109 39.470703 16.037109 C 39.470703 16.587109 39.920703 17.037109 40.470703 17.037109 C 41.020703 17.037109 41.470703 16.587109 41.470703 16.037109 C 41.470703 15.487109 41.020703 15.037109 40.470703 15.037109 z M 44.470703 15.037109 C 43.920703 15.037109 43.470703 15.487109 43.470703 16.037109 C 43.470703 16.587109 43.920703 17.037109 44.470703 17.037109 C 45.020703 17.037109 45.470703 16.587109 45.470703 16.037109 C 45.470703 15.487109 45.020703 15.037109 44.470703 15.037109 z M 48.470703 15.037109 C 47.920703 15.037109 47.470703 15.487109 47.470703 16.037109 C 47.470703 16.587109 47.920703 17.037109 48.470703 17.037109 C 49.020703 17.037109 49.470703 16.587109 49.470703 16.037109 C 49.470703 15.487109 49.020703 15.037109 48.470703 15.037109 z M 52.470703 15.037109 C 51.920703 15.037109 51.470703 15.487109 51.470703 16.037109 C 51.470703 16.587109 51.920703 17.037109 52.470703 17.037109 C 53.020703 17.037109 53.470703 16.587109 53.470703 16.037109 C 53.470703 15.487109 53.020703 15.037109 52.470703 15.037109 z M 56.560547 15.076172 C 56.010547 15.026172 55.520703 15.426562 55.470703 15.976562 C 55.420703 16.527563 55.830859 17.015406 56.380859 17.066406 L 56.470703 17.066406 C 56.980703 17.066406 57.410938 16.677969 57.460938 16.167969 C 57.510938 15.617969 57.110547 15.126172 56.560547 15.076172 z M 20.375 15.746094 C 20.245938 15.754844 20.116641 15.789062 19.994141 15.851562 C 19.494141 16.091562 19.294922 16.691406 19.544922 17.191406 C 19.724922 17.541406 20.075312 17.741187 20.445312 17.742188 C 20.595312 17.742188 20.744766 17.712578 20.884766 17.642578 L 20.884766 17.632812 C 21.384766 17.392813 21.585938 16.792969 21.335938 16.292969 C 21.148438 15.925469 20.762187 15.719844 20.375 15.746094 z M 60.511719 16.279297 C 60.129219 16.206734 59.723047 16.367453 59.498047 16.720703 C 59.198047 17.180703 59.329062 17.801562 59.789062 18.101562 C 59.959063 18.211563 60.149844 18.271484 60.339844 18.271484 C 60.659844 18.271484 60.979922 18.110547 61.169922 17.810547 C 61.479922 17.350547 61.348906 16.731641 60.878906 16.431641 C 60.763906 16.353891 60.639219 16.303484 60.511719 16.279297 z M 17.244141 18.318359 C 16.990391 18.358359 16.751797 18.495703 16.591797 18.720703 L 16.591797 18.730469 C 16.271797 19.171469 16.372266 19.801094 16.822266 20.121094 C 16.991266 20.251094 17.201344 20.311547 17.402344 20.310547 C 17.712344 20.310547 18.022891 20.161625 18.212891 19.890625 C 18.542891 19.439625 18.432188 18.821953 17.992188 18.501953 C 17.767188 18.336953 17.497891 18.278359 17.244141 18.318359 z M 62.966797 19.224609 C 62.837422 19.239547 62.708438 19.279859 62.585938 19.349609 C 62.105938 19.619609 61.935078 20.220938 62.205078 20.710938 C 62.384078 21.030938 62.724219 21.219703 63.074219 21.220703 C 63.244219 21.220703 63.414453 21.179844 63.564453 21.089844 C 64.044453 20.820844 64.215313 20.209469 63.945312 19.730469 C 63.742812 19.369719 63.354922 19.179797 62.966797 19.224609 z M 39.222656 22.044922 C 38.985141 22.027844 38.747875 22.038125 38.515625 22.078125 C 37.437625 22.158125 36.657891 22.837859 36.212891 23.505859 C 35.737891 24.184859 35.499328 24.921391 35.361328 25.650391 C 35.094328 27.107391 35.283141 28.565281 35.619141 29.863281 C 36.103141 31.779281 36.82525 33.55525 37.65625 35.28125 C 37.57725 35.50125 37.508922 35.731172 37.419922 35.951172 C 36.500922 38.276172 35.580594 40.361187 34.433594 42.617188 C 33.810594 43.885188 33.167859 45.143625 32.505859 46.390625 C 31.497859 46.789625 30.498766 47.207969 29.509766 47.667969 C 28.323766 48.226969 27.166766 48.816687 26.009766 49.554688 C 25.722766 49.734687 25.435437 49.942109 25.148438 50.162109 L 24.693359 50.552734 L 24.347656 50.880859 C 23.872656 51.339859 23.388125 51.848031 22.953125 52.457031 C 22.528125 53.056031 22.094859 53.764203 22.005859 54.783203 C 21.975859 55.292203 22.084562 55.861078 22.351562 56.330078 C 22.618562 56.799078 22.964313 57.138203 23.320312 57.408203 C 24.081312 58.007203 25.288672 58.177734 26.138672 57.927734 C 27.008672 57.697734 27.669906 57.278609 28.253906 56.849609 C 29.430906 55.991609 30.349766 55.004391 31.259766 54.025391 C 32.169766 53.037391 32.990953 52.009172 33.751953 50.951172 C 34.493953 49.883172 35.203719 48.794266 35.886719 47.697266 C 36.410719 47.527266 36.94475 47.368516 37.46875 47.228516 C 39.84175 46.609516 42.373938 46.040953 44.835938 45.501953 C 44.964937 45.471953 45.091703 45.451875 45.220703 45.421875 C 46.555703 46.529875 47.960734 47.538719 49.552734 48.386719 C 49.849734 48.556719 50.175719 48.695938 50.511719 48.835938 C 50.857719 48.975938 51.223062 49.074125 51.539062 49.203125 C 52.192062 49.462125 52.874703 49.6725 53.595703 49.8125 C 54.327703 49.9525 55.098281 50.042813 55.988281 49.882812 C 56.423281 49.812812 56.907344 49.662047 57.402344 49.373047 C 57.877344 49.084047 58.340188 48.596109 58.617188 48.037109 C 58.884188 47.488109 58.994375 46.868922 58.984375 46.419922 C 58.992375 45.950922 58.884484 45.441656 58.646484 44.972656 C 58.181484 44.004656 57.290234 43.315875 56.490234 43.046875 C 54.958234 42.527875 53.544688 42.44875 52.179688 42.46875 C 51.507688 42.48875 50.845594 42.508359 50.183594 42.568359 C 49.471594 42.628359 48.857844 42.727172 48.214844 42.826172 C 47.641844 42.906172 47.067141 43.006469 46.494141 43.105469 C 46.029141 42.656469 45.585391 42.197516 45.150391 41.728516 C 44.310391 40.820516 43.647547 39.972547 42.935547 38.935547 C 42.253547 37.997547 41.620578 37.029016 41.017578 36.041016 C 41.610578 33.865016 42.193594 31.709594 42.558594 29.433594 C 42.667594 28.764594 42.785937 28.117906 42.835938 27.378906 C 42.894937 26.619906 42.826844 25.8215 42.589844 25.0625 C 42.362844 24.2935 41.927313 23.474469 41.195312 22.855469 C 40.646313 22.391219 39.935203 22.096156 39.222656 22.044922 z M 16.259766 22.15625 C 15.709766 22.08525 15.200859 22.465625 15.130859 23.015625 C 15.050859 23.555625 15.430469 24.067484 15.980469 24.146484 L 16.119141 24.146484 C 16.609141 24.146484 17.039375 23.787109 17.109375 23.287109 C 17.179375 22.737109 16.799766 22.23625 16.259766 22.15625 z M 63.929688 23.085938 C 63.379688 23.095937 62.950938 23.555469 62.960938 24.105469 C 62.970937 24.645469 63.420938 25.086938 63.960938 25.085938 L 63.980469 25.085938 C 64.540469 25.066937 64.970938 24.606641 64.960938 24.056641 C 64.940938 23.506641 64.489688 23.065938 63.929688 23.085938 z M 38.644531 23.984375 C 39.356531 24.144375 39.554109 24.831469 39.662109 25.730469 C 39.682109 25.960469 39.710938 26.199219 39.710938 26.449219 C 39.700938 26.708219 39.721406 26.889688 39.691406 27.179688 C 39.671406 27.708687 39.582609 28.307719 39.474609 28.886719 C 39.276609 29.834719 39.03825 30.792 38.78125 31.75 C 38.41525 30.932 38.089031 30.103625 37.832031 29.265625 C 37.477031 28.136625 37.2995 27.038469 37.4375 25.980469 C 37.5065 25.471469 37.645813 24.972516 37.882812 24.603516 C 38.109812 24.224516 38.417531 23.994375 38.644531 23.984375 z M 16.039062 26.146484 C 15.489062 26.146484 15.039062 26.596484 15.039062 27.146484 C 15.039062 27.697484 15.489062 28.146484 16.039062 28.146484 C 16.589063 28.146484 17.039062 27.697484 17.039062 27.146484 C 17.039062 26.596484 16.589063 26.146484 16.039062 26.146484 z M 63.960938 27.087891 C 63.410937 27.087891 62.960938 27.527891 62.960938 28.087891 C 62.960938 28.637891 63.410938 29.087891 63.960938 29.087891 C 64.520938 29.087891 64.960938 28.637891 64.960938 28.087891 C 64.960938 27.527891 64.520938 27.087891 63.960938 27.087891 z M 16.039062 30.146484 C 15.489062 30.146484 15.039062 30.596484 15.039062 31.146484 C 15.039062 31.697484 15.489062 32.146484 16.039062 32.146484 C 16.589063 32.146484 17.039062 31.697484 17.039062 31.146484 C 17.039062 30.596484 16.589063 30.146484 16.039062 30.146484 z M 63.960938 31.087891 C 63.410937 31.087891 62.960938 31.527891 62.960938 32.087891 C 62.960938 32.637891 63.410938 33.087891 63.960938 33.087891 C 64.520938 33.087891 64.960938 32.637891 64.960938 32.087891 C 64.960938 31.527891 64.520938 31.087891 63.960938 31.087891 z M 16.039062 34.146484 C 15.489062 34.146484 15.039062 34.596484 15.039062 35.146484 C 15.039062 35.697484 15.489062 36.146484 16.039062 36.146484 C 16.589063 36.146484 17.039062 35.697484 17.039062 35.146484 C 17.039062 34.596484 16.589063 34.146484 16.039062 34.146484 z M 63.960938 35.087891 C 63.410937 35.087891 62.960938 35.527891 62.960938 36.087891 C 62.960938 36.637891 63.410938 37.087891 63.960938 37.087891 C 64.520938 37.087891 64.960938 36.637891 64.960938 36.087891 C 64.960938 35.527891 64.520938 35.087891 63.960938 35.087891 z M 16.039062 38.146484 C 15.489062 38.146484 15.039062 38.596484 15.039062 39.146484 C 15.039062 39.697484 15.489062 40.146484 16.039062 40.146484 C 16.589063 40.146484 17.039062 39.697484 17.039062 39.146484 C 17.039062 38.596484 16.589063 38.146484 16.039062 38.146484 z M 63.960938 39.087891 C 63.410937 39.087891 62.960938 39.527891 62.960938 40.087891 C 62.960938 40.637891 63.410938 41.087891 63.960938 41.087891 C 64.520938 41.087891 64.960938 40.637891 64.960938 40.087891 C 64.960938 39.527891 64.520938 39.087891 63.960938 39.087891 z M 39.980469 39.503906 C 40.188469 39.832906 40.395281 40.182719 40.613281 40.511719 C 40.989281 41.050719 41.354828 41.569672 41.798828 42.138672 C 42.243828 42.657672 42.699828 43.146234 43.173828 43.615234 C 43.193828 43.635234 43.213422 43.644062 43.232422 43.664062 C 41.334422 44.004063 39.464875 44.343969 37.546875 44.792969 C 37.635875 44.632969 39.010625 42.058484 39.515625 40.771484 C 39.693625 40.352484 39.831469 39.923906 39.980469 39.503906 z M 16.039062 42.146484 C 15.489062 42.146484 15.039062 42.596484 15.039062 43.146484 C 15.039062 43.697484 15.489062 44.146484 16.039062 44.146484 C 16.589063 44.146484 17.039062 43.697484 17.039062 43.146484 C 17.039062 42.596484 16.589063 42.146484 16.039062 42.146484 z M 63.960938 43.087891 C 63.410937 43.087891 62.960938 43.527891 62.960938 44.087891 C 62.960938 44.637891 63.410938 45.087891 63.960938 45.087891 C 64.520938 45.087891 64.960938 44.637891 64.960938 44.087891 C 64.960938 43.527891 64.520938 43.087891 63.960938 43.087891 z M 52.179688 44.333984 C 52.782688 44.333984 53.375688 44.384375 53.929688 44.484375 C 54.483688 44.564375 55.006734 44.802109 55.302734 45.162109 C 55.599734 45.501109 55.688266 45.812797 55.697266 46.091797 C 55.699266 46.330797 55.620312 46.798047 55.195312 46.998047 C 54.849313 47.168047 54.375797 47.228047 53.841797 47.248047 C 53.297797 47.268047 52.724391 47.218906 52.150391 47.128906 C 51.586391 47.008906 51.170484 46.739453 50.646484 46.439453 C 49.865484 45.950453 49.105047 45.372438 48.373047 44.773438 C 48.432047 44.753437 48.491781 44.742422 48.550781 44.732422 C 49.163781 44.612422 49.796375 44.482594 50.359375 44.433594 C 50.972375 44.373594 51.576687 44.313984 52.179688 44.333984 z M 16.039062 46.146484 C 15.489062 46.146484 15.039062 46.596484 15.039062 47.146484 C 15.039062 47.697484 15.489062 48.146484 16.039062 48.146484 C 16.589063 48.146484 17.039062 47.697484 17.039062 47.146484 C 17.039062 46.596484 16.589063 46.146484 16.039062 46.146484 z M 63.960938 47.087891 C 63.410937 47.087891 62.960938 47.527891 62.960938 48.087891 C 62.960938 48.637891 63.410938 49.087891 63.960938 49.087891 C 64.520938 49.087891 64.960938 48.637891 64.960938 48.087891 C 64.960938 47.527891 64.520938 47.087891 63.960938 47.087891 z M 30.654297 49.712891 C 29.518297 51.639891 28.351531 53.625109 26.769531 54.912109 C 26.344531 55.241109 25.889203 55.491562 25.533203 55.601562 C 24.969203 55.781562 24.278125 55.591109 24.328125 54.912109 C 24.338125 54.662109 24.535563 54.213922 24.851562 53.794922 C 25.157563 53.365922 25.543516 52.957109 25.978516 52.537109 L 26.324219 52.207031 L 26.591797 51.978516 C 26.809797 51.818516 27.036203 51.658047 27.283203 51.498047 C 28.282203 50.869047 29.390813 50.30025 30.507812 49.78125 C 30.556812 49.76125 30.605297 49.742891 30.654297 49.712891 z M 16.039062 50.146484 C 15.489062 50.146484 15.039062 50.596484 15.039062 51.146484 C 15.039062 51.697484 15.489062 52.146484 16.039062 52.146484 C 16.589063 52.146484 17.039062 51.697484 17.039062 51.146484 C 17.039062 50.596484 16.589063 50.146484 16.039062 50.146484 z M 63.960938 51.087891 C 63.410937 51.087891 62.960938 51.527891 62.960938 52.087891 C 62.960938 52.637891 63.410938 53.087891 63.960938 53.087891 C 64.520938 53.087891 64.960938 52.637891 64.960938 52.087891 C 64.960938 51.527891 64.520938 51.087891 63.960938 51.087891 z M 16.039062 54.146484 C 15.489062 54.146484 15.039062 54.596484 15.039062 55.146484 C 15.039062 55.697484 15.489062 56.146484 16.039062 56.146484 C 16.589063 56.146484 17.039062 55.697484 17.039062 55.146484 C 17.039062 54.596484 16.589063 54.146484 16.039062 54.146484 z M 64 55.087891 C 63.45 55.057891 62.979219 55.487109 62.949219 56.037109 C 62.929219 56.587109 63.360156 57.055172 63.910156 57.076172 C 63.920156 57.086172 63.939219 57.087891 63.949219 57.087891 C 64.479219 57.087891 64.929219 56.666953 64.949219 56.126953 C 64.979219 55.576953 64.55 55.107891 64 55.087891 z M 16.642578 58.166016 C 16.513359 58.168781 16.382812 58.198609 16.257812 58.255859 C 15.747812 58.474859 15.518047 59.064219 15.748047 59.574219 C 15.907047 59.944219 16.278203 60.164016 16.658203 60.166016 C 16.798203 60.166016 16.938359 60.136172 17.068359 60.076172 C 17.568359 59.856172 17.798125 59.265625 17.578125 58.765625 C 17.405625 58.383125 17.030234 58.157719 16.642578 58.166016 z M 63.138672 59.017578 C 62.751484 58.966953 62.356484 59.145859 62.146484 59.505859 C 61.866484 59.975859 62.026094 60.586953 62.496094 60.876953 C 62.656094 60.966953 62.825859 61.005859 63.005859 61.005859 C 63.345859 61.005859 63.675234 60.835625 63.865234 60.515625 C 64.145234 60.036625 63.985625 59.426484 63.515625 59.146484 C 63.395625 59.076484 63.267734 59.034453 63.138672 59.017578 z M 19.197266 61.490234 C 18.943516 61.520234 18.70125 61.648281 18.53125 61.863281 C 18.18125 62.293281 18.261406 62.923672 18.691406 63.263672 C 18.871406 63.412672 19.090547 63.481422 19.310547 63.482422 C 19.600547 63.482422 19.901797 63.353516 20.091797 63.103516 C 20.441797 62.674516 20.361641 62.044125 19.931641 61.703125 C 19.716641 61.528125 19.451016 61.460234 19.197266 61.490234 z M 60.060547 61.904297 C 59.933203 61.924625 59.808359 61.970469 59.693359 62.042969 C 59.223359 62.332969 59.073047 62.953828 59.373047 63.423828 C 59.563047 63.723828 59.882656 63.893578 60.222656 63.892578 C 60.402656 63.892578 60.582188 63.842188 60.742188 63.742188 C 61.212188 63.441187 61.3625 62.832328 61.0625 62.361328 C 60.845 62.009578 60.442578 61.843312 60.060547 61.904297 z M 23.435547 62.824219 C 22.885547 62.824219 22.435547 63.264219 22.435547 63.824219 C 22.435547 64.374219 22.885547 64.824219 23.435547 64.824219 C 23.985547 64.824219 24.435547 64.374219 24.435547 63.824219 C 24.435547 63.264219 23.985547 62.824219 23.435547 62.824219 z M 56.230469 62.947266 C 55.680469 62.976266 55.260781 63.465625 55.300781 64.015625 C 55.340781 64.536625 55.780781 64.935547 56.300781 64.935547 L 56.369141 64.935547 C 56.919141 64.895547 57.340781 64.417187 57.300781 63.867188 C 57.260781 63.317188 56.780469 62.907266 56.230469 62.947266 z M 28.064453 62.966797 C 27.514453 62.966797 27.064453 63.406797 27.064453 63.966797 C 27.064453 64.515797 27.514453 64.966797 28.064453 64.966797 C 28.614453 64.966797 29.064453 64.516797 29.064453 63.966797 C 29.064453 63.406797 28.614453 62.966797 28.064453 62.966797 z M 32.300781 62.966797 C 31.750781 62.966797 31.300781 63.406797 31.300781 63.966797 C 31.300781 64.515797 31.750781 64.966797 32.300781 64.966797 C 32.850781 64.966797 33.300781 64.516797 33.300781 63.966797 C 33.300781 63.406797 32.850781 62.966797 32.300781 62.966797 z M 36.300781 62.966797 C 35.750781 62.966797 35.300781 63.406797 35.300781 63.966797 C 35.300781 64.515797 35.750781 64.966797 36.300781 64.966797 C 36.850781 64.966797 37.300781 64.516797 37.300781 63.966797 C 37.300781 63.406797 36.850781 62.966797 36.300781 62.966797 z M 40.300781 62.966797 C 39.750781 62.966797 39.300781 63.406797 39.300781 63.966797 C 39.300781 64.515797 39.750781 64.966797 40.300781 64.966797 C 40.850781 64.966797 41.300781 64.516797 41.300781 63.966797 C 41.300781 63.406797 40.850781 62.966797 40.300781 62.966797 z M 44.300781 62.966797 C 43.750781 62.966797 43.300781 63.406797 43.300781 63.966797 C 43.300781 64.515797 43.750781 64.966797 44.300781 64.966797 C 44.850781 64.966797 45.300781 64.516797 45.300781 63.966797 C 45.300781 63.406797 44.850781 62.966797 44.300781 62.966797 z M 48.300781 62.966797 C 47.750781 62.966797 47.300781 63.406797 47.300781 63.966797 C 47.300781 64.515797 47.750781 64.966797 48.300781 64.966797 C 48.850781 64.966797 49.300781 64.516797 49.300781 63.966797 C 49.300781 63.406797 48.850781 62.966797 48.300781 62.966797 z M 52.300781 62.966797 C 51.750781 62.966797 51.300781 63.406797 51.300781 63.966797 C 51.300781 64.515797 51.750781 64.966797 52.300781 64.966797 C 52.850781 64.966797 53.300781 64.516797 53.300781 63.966797 C 53.300781 63.406797 52.850781 62.966797 52.300781 62.966797 z"/></svg>