<?xml version="1.0" encoding="utf-8"?>
<svg xmlns="http://www.w3.org/2000/svg" viewBox="0 0 30 30" fill="#000000"><path d="M 8.1464844 3.0117188 C 7.150752 2.9202441 6.1035937 3.4007031 5.2617188 4.2519531 C 3.9157188 5.6149531 3.4485156 7.5100469 4.8535156 8.8730469 C 5.1156575 9.1381733 5.2034184 9.2191452 5.4238281 9.4335938 C 3.9846419 11.305433 3 13.595512 3 16 C 3 18.730681 4.8999743 21.36173 7.25 23.419922 C 9.6000257 25.478113 12.442012 27 15 27 C 17.557988 27 20.399974 25.478113 22.75 23.419922 C 25.100026 21.36173 27 18.730681 27 16 C 27 13.595512 26.015358 11.305433 24.576172 9.4335938 C 24.796456 9.2191452 24.88484 9.1381733 25.146484 8.8730469 C 26.552484 7.5100469 26.083328 5.6149531 24.736328 4.2519531 C 23.390328 2.8909531 21.518875 2.4748906 20.171875 3.8378906 C 19.753233 4.2622572 19.426685 4.8087085 19.208984 5.3886719 C 18.481176 5.1465885 17.741154 5 17 5 L 13 5 C 12.258846 5 11.518824 5.1465885 10.791016 5.3886719 C 10.573257 4.8087085 10.247482 4.2622572 9.828125 3.8378906 C 9.323375 3.3267656 8.7439238 3.0666035 8.1464844 3.0117188 z M 13 7 L 17 7 C 18.587333 7 20.661237 8.0733569 22.269531 9.7910156 C 23.877826 11.508674 25 13.806164 25 16 C 25 17.718319 23.522568 20.086457 21.433594 21.916016 C 19.344619 23.745574 16.686012 25 15 25 C 13.313988 25 10.655381 23.745574 8.5664062 21.916016 C 6.4774321 20.086457 5 17.718319 5 16 C 5 13.806164 6.122174 11.508674 7.7304688 9.7910156 C 9.3387635 8.0733569 11.412667 7 13 7 z M 11.595703 12 C 9.9717031 12 8.3885469 13.567 8.0605469 15.5 C 7.7315469 17.433 8.78225 19 10.40625 19 C 12.03025 19 13.611453 17.433 13.939453 15.5 C 14.267453 13.567 13.218703 12 11.595703 12 z M 18.40625 12 C 16.78225 12 15.731547 13.567 16.060547 15.5 C 16.388547 17.433 17.972703 19 19.595703 19 C 21.218703 19 22.267453 17.433 21.939453 15.5 C 21.611453 13.567 20.02925 12 18.40625 12 z M 12 14 C 12.552 14 13 14.448 13 15 C 13 15.552 12.552 16 12 16 C 11.448 16 11 15.552 11 15 C 11 14.448 11.448 14 12 14 z M 18 14 C 18.552 14 19 14.448 19 15 C 19 15.552 18.552 16 18 16 C 17.448 16 17 15.552 17 15 C 17 14.448 17.448 14 18 14 z M 13.341797 20.003906 C 13.125709 20.023828 13 20.117594 13 20.371094 C 13 21.048094 14.422 22.400391 15 22.400391 C 15.766 22.400391 17 21.047094 17 20.371094 C 17 19.809094 16.101 20.146484 15 20.146484 C 14.311875 20.146484 13.701943 19.970703 13.341797 20.003906 z" fill="#000000"/></svg>
