<?xml version="1.0" encoding="utf-8"?>
<svg xmlns="http://www.w3.org/2000/svg" viewBox="0 0 50 50" fill="#000000"><path d="M 9 4 C 6.24 4 4 6.24 4 9 L 4 41 C 4 43.76 6.24 46 9 46 L 41 46 C 43.76 46 46 43.76 46 41 L 46 9 C 46 6.24 43.76 4 41 4 L 9 4 z M 25 10 C 33.27 10 40 16.73 40 25 C 40 33.27 33.27 40 25 40 C 16.73 40 10 33.27 10 25 C 10 16.73 16.73 10 25 10 z M 25 12 C 17.83 12 12 17.83 12 25 C 12 32.17 17.83 38 25 38 C 32.17 38 38 32.17 38 25 C 38 17.83 32.17 12 25 12 z M 24.361328 16.003906 C 24.507109 15.986562 24.657734 16.052188 24.740234 16.179688 C 25.530234 17.439688 28.36 21.920625 30 25.140625 L 28.390625 26.009766 C 26.670625 22.789766 24.619062 17.960547 24.039062 16.560547 C 23.959063 16.370547 24.040703 16.140781 24.220703 16.050781 C 24.265703 16.025781 24.312734 16.009688 24.361328 16.003906 z M 23.939453 19 C 24.119453 19 24.300703 19.040625 24.470703 19.140625 C 24.820703 19.340625 25.009766 19.700313 25.009766 20.070312 C 25.009766 20.250312 24.969141 20.439375 24.869141 20.609375 L 24.859375 20.609375 L 23.009766 19.539062 C 23.209766 19.189063 23.569453 19 23.939453 19 z M 22.849609 19.810547 L 24.710938 20.880859 L 23.75 22.550781 L 21.890625 21.480469 L 22.849609 19.810547 z M 21.759766 21.699219 L 23.619141 22.769531 L 19.679688 29.580078 L 17.830078 28.509766 L 21.759766 21.699219 z M 16 24 L 19.859375 24 L 18.130859 27 L 16 27 L 16 24 z M 23.480469 24 L 26.919922 24 C 27.289922 24.77 27.669297 25.519219 28.029297 26.199219 L 28.550781 27 L 21.75 27 L 23.480469 24 z M 29.849609 24 L 34 24 L 34 27 L 31.189453 27 L 30.369141 24.990234 C 30.209141 24.670234 30.029609 24.34 29.849609 24 z M 30.109375 25.359375 L 30.980469 27.429688 L 29.710938 28.119141 L 28.5 26.230469 L 30.109375 25.359375 z M 31.060547 27.75 L 32.839844 30.490234 C 33.149844 30.970234 32.990234 31.620625 32.490234 31.890625 C 32.350234 31.970625 32.189062 32 32.039062 32 C 31.669062 32 31.310156 31.780391 31.160156 31.400391 L 29.919922 28.369141 L 31.060547 27.75 z M 17.689453 28.75 L 19.550781 29.820312 L 17.150391 32 L 17 31.910156 L 17.689453 28.75 z" fill="#000000"/></svg>
