<?xml version="1.0" encoding="utf-8"?>
<svg xmlns="http://www.w3.org/2000/svg" viewBox="0 0 50 50" fill="#000000"><path d="M 11 4 C 7.144531 4 4 7.144531 4 11 L 4 39 C 4 42.855469 7.144531 46 11 46 L 39 46 C 42.855469 46 46 42.855469 46 39 L 46 11 C 46 7.144531 42.855469 4 39 4 Z M 11 6 L 39 6 C 41.773438 6 44 8.226563 44 11 L 44 39 C 44 41.773438 41.773438 44 39 44 L 11 44 C 8.226563 44 6 41.773438 6 39 L 6 11 C 6 8.226563 8.226563 6 11 6 Z M 21 12 C 20.445313 12 20 12.449219 20 13 L 20 16 L 17 16 C 16.445313 16 16 16.449219 16 17 L 16 20 L 12 20 C 11.445313 20 11 20.449219 11 21 L 11 37 C 11 37.550781 11.445313 38 12 38 L 16 38 L 16 30 C 16 29.449219 16.445313 29 17 29 C 17.554688 29 18 29.449219 18 30 L 18 38 L 20 38 L 20 30 C 20 29.449219 20.445313 29 21 29 C 21.554688 29 22 29.449219 22 30 L 22 38 L 24 38 L 24 30 C 24 29.449219 24.445313 29 25 29 C 25.554688 29 26 29.449219 26 30 L 26 38 L 28 38 L 28 30 C 28 29.449219 28.445313 29 29 29 C 29.554688 29 30 29.449219 30 30 L 30 38 L 32 38 L 32 30 C 32 29.449219 32.445313 29 33 29 C 33.554688 29 34 29.449219 34 30 L 34 38 L 38 38 C 38.554688 38 39 37.550781 39 37 L 39 21 C 39 20.449219 38.554688 20 38 20 L 34 20 L 34 17 C 34 16.449219 33.554688 16 33 16 L 30 16 L 30 13 C 30 12.449219 29.554688 12 29 12 Z" fill="#000000"/></svg>
