<?xml version="1.0" encoding="utf-8"?>
<svg xmlns="http://www.w3.org/2000/svg" viewBox="0 0 50 50" fill="#000000"><path d="M 12.78125 13.078125 C 12.261719 13.09375 11.769531 13.3125 11.40625 13.6875 L 0.09375 25 L 11.40625 36.3125 C 11.910156 36.835938 12.65625 37.046875 13.355469 36.863281 C 14.054688 36.683594 14.605469 36.132813 14.785156 35.433594 C 14.96875 34.734375 14.757813 33.988281 14.234375 33.484375 L 5.75 25 L 14.234375 16.515625 C 14.828125 15.9375 15.003906 15.058594 14.683594 14.300781 C 14.363281 13.539063 13.609375 13.054688 12.78125 13.078125 Z M 37.167969 13.078125 C 36.351563 13.082031 35.621094 13.574219 35.3125 14.328125 C 35.007813 15.082031 35.1875 15.945313 35.769531 16.515625 L 44.257813 25 L 35.769531 33.484375 C 35.25 33.988281 35.039063 34.734375 35.222656 35.433594 C 35.402344 36.132813 35.953125 36.683594 36.652344 36.863281 C 37.351563 37.046875 38.097656 36.835938 38.597656 36.3125 L 49.914063 25 L 38.597656 13.6875 C 38.222656 13.296875 37.707031 13.082031 37.167969 13.078125 Z M 15 23 C 13.894531 23 13 23.894531 13 25 C 13 26.105469 13.894531 27 15 27 C 16.105469 27 17 26.105469 17 25 C 17 23.894531 16.105469 23 15 23 Z M 25 23 C 23.894531 23 23 23.894531 23 25 C 23 26.105469 23.894531 27 25 27 C 26.105469 27 27 26.105469 27 25 C 27 23.894531 26.105469 23 25 23 Z M 35 23 C 33.894531 23 33 23.894531 33 25 C 33 26.105469 33.894531 27 35 27 C 36.105469 27 37 26.105469 37 25 C 37 23.894531 36.105469 23 35 23 Z" fill="#000000"/></svg>
