<?xml version="1.0" encoding="utf-8"?>
<svg xmlns="http://www.w3.org/2000/svg" viewBox="0 0 50 50" fill="#000000"><path d="M 43 26 L 43 22.03125 C 43 17.601563 39.394531 14 34.96875 14 L 26 14 L 26 10.859375 C 27.722656 10.410156 29 8.859375 29 7 C 29 4.792969 27.207031 3 25 3 C 22.792969 3 21 4.792969 21 7 C 21 8.859375 22.28125 10.410156 24 10.859375 L 24 14 L 15.03125 14 C 10.605469 14 7 17.601563 7 22.03125 L 7 26 L 2 26 L 2 38 L 7 38 L 7 47 L 43 47 L 43 38 L 48 38 L 48 26 Z M 27 38 L 27 45 L 23 45 L 23 38 Z M 15 26.5 C 15 24.566406 16.566406 23 18.5 23 C 20.433594 23 22 24.566406 22 26.5 C 22 28.433594 20.433594 30 18.5 30 C 16.566406 30 15 28.433594 15 26.5 Z M 17 38 L 21 38 L 21 45 L 17 45 Z M 33 45 L 29 45 L 29 38 L 33 38 Z M 31.5 30 C 29.566406 30 28 28.433594 28 26.5 C 28 24.566406 29.566406 23 31.5 23 C 33.433594 23 35 24.566406 35 26.5 C 35 28.433594 33.433594 30 31.5 30 Z" fill="#000000"/></svg>
