<?xml version="1.0" encoding="utf-8"?>
<svg xmlns="http://www.w3.org/2000/svg" viewBox="0 0 50 50" fill="#000000"><path d="M 12 3 C 7.039063 3 3 7.039063 3 12 C 3 16.960938 7.039063 21 12 21 C 16.960938 21 21 16.960938 21 12 C 21 7.039063 16.960938 3 12 3 Z M 31 4 C 30.445313 4 30 4.449219 30 5 L 30 19 C 30 19.550781 30.445313 20 31 20 L 45 20 C 45.554688 20 46 19.550781 46 19 L 46 5 C 46 4.449219 45.554688 4 45 4 Z M 12 29 C 7.039063 29 3 33.035156 3 38 C 3 42.964844 7.039063 47 12 47 C 16.960938 47 21 42.964844 21 38 C 21 33.035156 16.960938 29 12 29 Z M 38 29 C 33.035156 29 29 33.035156 29 38 C 29 42.964844 33.035156 47 38 47 C 42.964844 47 47 42.964844 47 38 C 47 33.035156 42.964844 29 38 29 Z" fill="#000000"/></svg>
