<svg height="681pt" viewBox="-117 -21 681 681.335" width="681pt" xmlns="http://www.w3.org/2000/svg"><path d="m430.234375 638.75h-425.828125c-5.875 0-10.644531-4.757812-10.644531-10.648438v-617.449218c0-5.886719 4.769531-10.6406252 10.644531-10.6406252h330.019531c2.820313 0 5.535157 1.1132812 7.523438 3.1171872l95.816406 95.808594c1.996094 1.992188 3.117187 4.699219 3.117187 7.527344v521.636718c0 5.890626-4.769531 10.648438-10.648437 10.648438zm-415.179687-21.289062h404.535156v-506.589844l-89.574219-89.570313h-314.960937zm0 0"/><path d="m430.234375 117.109375h-95.808594c-5.878906 0-10.648437-4.753906-10.648437-10.644531v-95.8125c0-4.296875 2.597656-8.195313 6.570312-9.832032 3.980469-1.664062 8.554688-.7460932 11.601563 2.308594l95.816406 95.808594c3.039063 3.046875 3.957031 7.621094 2.308594 11.601562-1.652344 3.984376-5.535157 6.570313-9.839844 6.570313zm-85.164063-21.289063h59.46875l-59.46875-59.464843zm0 0"/><path d="m430.234375 638.75h-425.828125c-5.875 0-10.644531-4.757812-10.644531-10.648438v-191.621093c0-5.886719 4.769531-10.644531 10.644531-10.644531h425.828125c5.878906 0 10.648437 4.757812 10.648437 10.644531v191.621093c0 5.890626-4.769531 10.648438-10.648437 10.648438zm-415.179687-21.289062h404.535156v-170.332032h-404.535156zm0 0"/><path d="m223.199219 372.605469h-11.753907c-5.367187 0-9.898437-4-10.5625-9.320313l-.390624-3.164062c-.746094-5.929688-4.554688-11.019532-9.730469-12.976563-1.277344-.46875-2.632813-1.035156-3.960938-1.609375-5.351562-2.40625-11.984375-1.425781-16.960937 2.4375l-2.042969 1.589844c-4.234375 3.316406-10.261719 2.925781-14.0625-.875l-8.3125-8.304688c-3.804687-3.789062-4.171875-9.828124-.875-14.0625l1.597656-2.042968c3.917969-5.046875 4.875-11.519532 2.472657-16.917969-.589844-1.308594-1.128907-2.660156-1.640626-4.003906-1.953124-5.171875-7.039062-8.996094-12.980468-9.730469l-3.160156-.390625c-5.332032-.671875-9.324219-5.195313-9.324219-10.558594v-11.753906c0-5.367187 3.992187-9.902344 9.324219-10.5625l3.152343-.394531c5.941407-.734375 11.027344-4.554688 12.976563-9.714844.511718-1.355469 1.0625-2.707031 1.652344-4.015625 2.394531-5.394531 1.445312-11.875-2.472657-16.917969l-1.597656-2.039062c-3.296875-4.242188-2.914063-10.28125.875-14.066406l8.3125-8.304688c3.800781-3.800781 9.828125-4.183594 14.0625-.871094l2.042969 1.582032c4.976562 3.847656 11.617187 4.84375 16.921875 2.460937 1.390625-.609375 2.730469-1.160156 4.082031-1.660156 5.09375-1.925781 8.914062-7.019531 9.648438-12.945313l.390624-3.160156c.664063-5.324219 5.195313-9.328125 10.5625-9.328125h11.753907c5.363281 0 9.902343 4.003906 10.558593 9.328125l.394532 3.160156c.746094 5.925782 4.558594 11.019532 9.734375 12.980469 1.273437.464844 2.613281 1.03125 3.945312 1.601563 5.367188 2.398437 12.007813 1.429687 16.96875-2.4375l2.046875-1.582032c4.234375-3.3125 10.273438-2.929687 14.058594.871094l8.304688 8.304688c3.792968 3.785156 4.175781 9.816406.882812 14.050781l-1.585938 2.046875c-3.925781 5.050781-4.871093 11.53125-2.46875 16.925781.574219 1.285156 1.128907 2.640625 1.640626 4 1.960937 5.175781 7.046874 8.996094 12.980468 9.730469l3.148438.394531c5.320312.660156 9.324218 5.195313 9.324218 10.5625v11.753906c0 5.363281-3.988281 9.898438-9.324218 10.558594l-3.148438.390625c-5.941406.734375-11.035156 4.558594-12.96875 9.722656-.523437 1.375-1.078125 2.722656-1.671875 4.054688-2.382812 5.355468-1.429687 11.828125 2.488281 16.875l1.601563 2.050781c3.296875 4.242187 2.914063 10.265625-.886719 14.054687l-8.304687 8.304688c-3.789063 3.789062-9.824219 4.171875-14.058594.875l-2.046875-1.589844c-4.972656-3.875-11.605469-4.84375-16.917969-2.457031-1.394531.605469-2.734375 1.160156-4.097656 1.65625-5.085937 1.929687-8.898437 7.019531-9.644531 12.949219l-.394532 3.164062c-.667968 5.320313-5.195312 9.320313-10.558593 9.320313zm-42.683594-49.703125c5.078125 0 10.148437 1.042968 14.898437 3.148437.882813.394531 1.839844.789063 2.789063 1.140625 8.304687 3.144532 14.980469 9.148438 19.117187 16.789063 4.132813-7.640625 10.792969-13.636719 19.035157-16.753907 1.042969-.386718 1.992187-.78125 2.929687-1.195312 8.152344-3.621094 17.273438-4.078125 25.757813-1.507812-2.550781-8.484376-2.113281-17.617188 1.527343-25.820313.449219-.972656.828126-1.933594 1.1875-2.886719 3.109376-8.234375 9.105469-14.902344 16.75-19.027344-7.644531-4.132812-13.648437-10.808593-16.757812-19.046874-.351562-.9375-.730469-1.894532-1.160156-2.835938-3.652344-8.214844-4.097656-17.371094-1.546875-25.855469-8.46875 2.542969-17.625 2.109375-25.820313-1.53125-.886718-.394531-1.832031-.789062-2.792968-1.140625-8.300782-3.128906-14.984376-9.140625-19.117188-16.789062-4.128906 7.648437-10.796875 13.636718-19.046875 16.753906-1.03125.386719-1.988281.78125-2.929687 1.195312-8.160157 3.628907-17.285157 4.078126-25.757813 1.511719 2.550781 8.484375 2.117187 17.621094-1.527344 25.816407-.421875.957031-.816406 1.917968-1.179687 2.886718-3.109375 8.238282-9.101563 14.902344-16.742188 19.035156 7.640625 4.125 13.644532 10.804688 16.753906 19.042969.359376.957031.753907 1.917969 1.167969 2.871094 3.644531 8.203125 4.089844 17.335937 1.527344 25.820313 3.574219-1.070313 7.261719-1.621094 10.9375-1.621094zm0 0"/><path d="m100.21875 351.316406c-3.042969 0-6.082031-1.296875-8.183594-3.820312l-53.234375-63.875c-3.289062-3.949219-3.289062-9.6875 0-13.636719l53.234375-63.875c3.765625-4.527344 10.472656-5.109375 14.988282-1.363281 4.511718 3.765625 5.132812 10.476562 1.359374 15l-47.554687 57.050781 47.554687 57.050781c3.773438 4.523438 3.152344 11.238282-1.359374 14.996094-1.984376 1.664062-4.394532 2.472656-6.804688 2.472656zm0 0"/><path d="m334.425781 351.316406c-2.40625 0-4.824219-.808594-6.8125-2.457031-4.519531-3.773437-5.121093-10.476563-1.363281-15l47.542969-57.050781-47.542969-57.050782c-3.769531-4.523437-3.15625-11.246093 1.363281-15 4.511719-3.757812 11.21875-3.164062 14.984375 1.363282l53.230469 63.875c3.289063 3.945312 3.289063 9.6875 0 13.632812l-53.230469 63.875c-2.105468 2.515625-5.125 3.8125-8.171875 3.8125zm0 0"/><path d="m238.613281 308.734375h-42.585937c-5.875 0-10.640625-4.757813-10.640625-10.644531v-42.582032c0-5.886718 4.765625-10.648437 10.640625-10.648437h42.585937c5.875 0 10.648438 4.761719 10.648438 10.648437v42.582032c0 5.886718-4.773438 10.644531-10.648438 10.644531zm-31.9375-21.292969h21.292969v-21.292968h-21.292969zm0 0"/><path d="m132.15625 596.167969c-5.878906 0-10.644531-4.761719-10.644531-10.648438v-93.371093c0-1.351563-1.097657-2.4375-2.4375-2.4375h-37.707031c-1.339844 0-2.4375 1.085937-2.4375 2.4375v93.371093c0 5.886719-4.773438 10.648438-10.648438 10.648438-5.878906 0-10.644531-4.761719-10.644531-10.648438v-93.371093c0-13.085938 10.644531-23.726563 23.730469-23.726563h37.707031c13.082031 0 23.730469 10.640625 23.730469 23.726563v93.371093c0 5.886719-4.773438 10.648438-10.648438 10.648438zm0 0"/><path d="m132.15625 542.9375h-63.875c-5.878906 0-10.644531-4.757812-10.644531-10.644531s4.765625-10.648438 10.644531-10.648438h63.875c5.875 0 10.648438 4.761719 10.648438 10.648438s-4.773438 10.644531-10.648438 10.644531zm0 0"/><path d="m222.648438 596.167969h-37.261719c-5.878907 0-10.648438-4.761719-10.648438-10.648438s4.769531-10.640625 10.648438-10.640625h37.261719c8.800781 0 15.964843-7.164062 15.964843-15.972656 0-8.804688-7.164062-15.96875-15.964843-15.96875h-10.648438c-20.546875 0-37.261719-16.710938-37.261719-37.261719 0-20.542969 16.714844-37.253906 37.261719-37.253906h37.261719c5.875 0 10.640625 4.753906 10.640625 10.640625s-4.765625 10.648438-10.640625 10.648438h-37.261719c-8.808594 0-15.972656 7.164062-15.972656 15.964843 0 8.808594 7.164062 15.96875 15.972656 15.96875h10.648438c20.542968 0 37.253906 16.71875 37.253906 37.261719 0 20.546875-16.710938 37.261719-37.253906 37.261719zm0 0"/><path d="m302.484375 596.167969c-5.875 0-10.640625-4.761719-10.640625-10.648438v-106.457031c0-5.886719 4.765625-10.640625 10.640625-10.640625 5.878906 0 10.648437 4.753906 10.648437 10.640625v106.457031c0 5.886719-4.769531 10.648438-10.648437 10.648438zm0 0"/><path d="m334.425781 553.585938h-31.941406c-5.875 0-10.640625-4.761719-10.640625-10.648438v-63.875c0-5.886719 4.765625-10.640625 10.640625-10.640625h31.941406c23.484375 0 42.582031 19.097656 42.582031 42.582031s-19.097656 42.582032-42.582031 42.582032zm-21.292969-21.292969h21.292969c11.738281 0 21.292969-9.550781 21.292969-21.289063 0-11.746094-9.554688-21.292968-21.292969-21.292968h-21.292969zm0 0"/></svg>