<?xml version="1.0" encoding="utf-8"?>
<svg xmlns="http://www.w3.org/2000/svg" viewBox="0 0 30 30" fill="#000000"><path d="M 14.998047 5 A 1.0001 1.0001 0 0 0 14.705078 5.0449219 L 1.7050781 9.0449219 A 1.0001 1.0001 0 0 0 1.7050781 10.955078 L 14.705078 14.955078 A 1.0001 1.0001 0 0 0 15.294922 14.955078 L 27 11.353516 L 27 20.277344 C 26.404366 20.623613 26 21.261054 26 22 C 26 23.105 28 26 28 26 C 28 26 30 23.105 30 22 C 30 21.261054 29.595634 20.623613 29 20.277344 L 29 10 A 1.0001 1.0001 0 0 0 28.998047 9.96875 A 1.0001 1.0001 0 0 0 28.144531 8.9980469 L 15.294922 5.0449219 A 1.0001 1.0001 0 0 0 14.998047 5 z M 7 14.677734 L 7 21 C 7 21 11 21 15 24 C 19 21 23 21 23 21 L 23 14.677734 L 15.882812 16.867188 C 15.595813 16.956187 15.297 17 15 17 C 14.703 17 14.404188 16.956188 14.117188 16.867188 L 7 14.677734 z" fill="#000000"/></svg>
