<?xml version="1.0" encoding="utf-8"?>
<svg xmlns="http://www.w3.org/2000/svg" viewBox="0 0 50 50" fill="#000000"><path d="M 25.037109 2 A 1.0001 1.0001 0 0 0 24.576172 2.09375 L 2.5761719 12.380859 A 1.0001 1.0001 0 0 0 2 13.285156 L 2 15 A 1.0001 1.0001 0 0 0 3 16 L 5 16 C 5 17.29975 5.8348345 18.43211 7 18.833984 L 7 37.150391 C 5.8280314 37.539726 5 38.695112 5 40 L 5 41 L 4.8457031 41 C 3.2400822 41 2 42.397208 2 44 L 2 47 L 48 47 L 48 44 C 48 42.397208 46.759918 41 45.154297 41 L 45 41 L 45 40 C 45 38.695112 44.171969 37.539726 43 37.150391 L 43 18.833984 C 44.165166 18.43211 45 17.29975 45 16 L 47 16 A 1.0001 1.0001 0 0 0 48 15 L 48 13.285156 A 1.0001 1.0001 0 0 0 47.423828 12.380859 L 25.423828 2.09375 A 1.0001 1.0001 0 0 0 25.037109 2 z M 25 4.1035156 L 46 13.921875 L 46 14 L 4 14 L 4 13.921875 L 25 4.1035156 z M 7 16 L 43 16 C 43 16.5883 42.580604 17 42.091797 17 L 22 17 L 18 17 L 7.9082031 17 C 7.4193959 17 7 16.5883 7 16 z M 9 19 L 11 19 L 11 37 L 9 37 L 9 19 z M 13 19 L 17 19 L 17 37 L 13 37 L 13 19 z M 19 19 L 21 19 L 21 37 L 19 37 L 19 19 z M 23 19 L 27 19 L 27 37 L 23 37 L 23 19 z M 29 19 L 31 19 L 31 37 L 29 37 L 29 19 z M 33 19 L 37 19 L 37 37 L 33 37 L 33 19 z M 39 19 L 41 19 L 41 37 L 39 37 L 39 19 z M 7.8457031 39 L 18 39 L 22 39 L 42.154297 39 C 42.588676 39 43 39.394792 43 40 L 43 41 L 7 41 L 7 40 C 7 39.394792 7.411324 39 7.8457031 39 z M 4.8457031 43 L 45.154297 43 C 45.588676 43 46 43.394792 46 44 L 46 45 L 4 45 L 4 44 C 4 43.394792 4.411324 43 4.8457031 43 z" fill="#000000"/></svg>
