<?xml version="1.0" encoding="utf-8"?>
<svg xmlns="http://www.w3.org/2000/svg" viewBox="0 0 50 50" fill="#000000"><path d="M 25.332031 2.078125 C 25.109375 2.074219 24.882813 2.082031 24.65625 2.101563 C 23.738281 2.171875 22.796875 2.398438 21.929688 2.734375 L 20.171875 3.414063 C 19.304688 3.75 18.628906 4.082031 18.25 4.867188 C 18.246094 4.867188 18.246094 4.871094 18.246094 4.871094 C 17.980469 4.863281 17.710938 4.867188 17.4375 4.890625 C 16.511719 4.960938 15.558594 5.195313 14.683594 5.53125 L 12.894531 6.21875 C 12.015625 6.5625 11.335938 6.902344 10.949219 7.679688 C 10.9375 7.699219 10.933594 7.71875 10.925781 7.734375 C 10.894531 7.734375 10.863281 7.730469 10.828125 7.730469 C 10.601563 7.730469 10.371094 7.742188 10.136719 7.757813 C 9.195313 7.828125 8.203125 8.03125 7.316406 8.375 L 5.507813 9.070313 C 4.75 9.363281 4.15625 9.671875 3.75 10.222656 L 3.742188 10.21875 L 2.523438 11.617188 L 2.53125 11.625 C 2.191406 12.015625 2 12.546875 2 13.078125 L 2 17.1875 C 2 18.636719 2.929688 19.894531 4.25 20.507813 L 4.660156 20.707031 C 4.007813 21.332031 3.492188 22.105469 3.390625 23.011719 C 3.191406 23.402344 3.078125 23.839844 3.078125 24.296875 L 3.070313 29.046875 C 3.070313 29.894531 3.359375 30.691406 3.859375 31.332031 C 3.359375 31.824219 3.0625 32.519531 3.0625 33.265625 L 3.054688 38.015625 C 3.050781 39.707031 4.203125 41.210938 5.835938 41.652344 L 10.484375 42.914063 C 11.261719 43.125 12.058594 43.011719 12.714844 42.636719 C 13.164063 43.296875 13.824219 43.820313 14.667969 44.046875 L 19.421875 45.335938 C 20.203125 45.546875 21.019531 45.511719 21.726563 45.140625 C 22.199219 45.78125 22.875 46.273438 23.695313 46.496094 L 28.558594 47.8125 C 29.273438 48.007813 30.011719 47.933594 30.625 47.617188 L 30.628906 47.628906 L 31.660156 47.125 C 32.066406 47.054688 32.34375 46.871094 32.625 46.65625 C 32.9375 46.414063 33.253906 46.105469 33.613281 45.707031 L 33.597656 45.730469 L 34.441406 44.847656 L 34.449219 44.839844 C 35.152344 44.070313 35.757813 43.152344 36.214844 42.261719 C 36.347656 42 36.464844 41.75 36.570313 41.5 C 36.933594 41.457031 37.195313 41.296875 37.433594 41.125 C 37.722656 40.914063 37.996094 40.652344 38.308594 40.3125 L 38.960938 39.59375 L 38.964844 39.59375 C 39.578125 38.917969 40.0625 38.128906 40.417969 37.355469 C 40.527344 37.113281 40.621094 36.875 40.703125 36.640625 C 40.746094 36.628906 40.796875 36.625 40.839844 36.613281 C 41.554688 36.417969 42.054688 35.96875 42.601563 35.367188 L 43.15625 34.757813 C 43.71875 34.144531 44.144531 33.386719 44.464844 32.640625 C 44.785156 31.890625 45 31.195313 45 30.5 L 45 27.109375 C 45 26.757813 44.9375 26.382813 44.6875 26.035156 C 44.636719 25.960938 44.570313 25.894531 44.5 25.832031 C 44.8125 25.1875 45 24.535156 45 23.984375 L 45 21.011719 L 45.773438 20.65625 C 47.085938 20.0625 48 18.824219 48 17.386719 L 48 13.355469 C 48 12.921875 47.863281 12.5 47.632813 12.140625 L 47.644531 12.136719 L 46.671875 10.40625 L 46.667969 10.40625 C 46.65625 10.390625 46.652344 10.367188 46.640625 10.347656 C 46.390625 9.945313 46.023438 9.730469 45.644531 9.585938 L 41.972656 8.15625 C 41.214844 7.859375 40.328125 7.773438 39.421875 7.851563 C 39.417969 7.851563 39.417969 7.847656 39.417969 7.851563 C 39.382813 7.71875 39.335938 7.59375 39.265625 7.480469 C 39.011719 7.070313 38.644531 6.859375 38.265625 6.710938 L 34.59375 5.28125 C 33.835938 4.988281 32.949219 4.902344 32.035156 4.976563 C 32.003906 4.84375 31.957031 4.722656 31.890625 4.609375 C 31.636719 4.199219 31.269531 3.988281 30.890625 3.839844 L 27.21875 2.410156 C 26.648438 2.1875 26.007813 2.085938 25.332031 2.078125 Z M 25.847656 4.167969 C 26.132813 4.183594 26.359375 4.222656 26.492188 4.273438 L 29.578125 5.476563 C 29.457031 5.554688 29.507813 5.542969 29.332031 5.613281 C 29.328125 5.613281 29.328125 5.613281 29.324219 5.617188 L 27.582031 6.296875 C 27.574219 6.300781 27.570313 6.304688 27.5625 6.304688 C 26.296875 6.792969 24.257813 6.84375 23.726563 6.636719 L 23.722656 6.636719 L 20.621094 5.429688 C 20.753906 5.347656 20.6875 5.355469 20.894531 5.277344 L 22.652344 4.601563 C 23.285156 4.355469 24.113281 4.222656 24.847656 4.175781 C 25.21875 4.152344 25.5625 4.152344 25.847656 4.167969 Z M 18.648438 6.957031 C 18.9375 6.972656 19.167969 7.011719 19.300781 7.0625 L 22.421875 8.277344 C 22.289063 8.363281 22.351563 8.351563 22.132813 8.4375 L 20.363281 9.132813 C 20.359375 9.132813 20.359375 9.132813 20.359375 9.132813 C 19.066406 9.632813 16.988281 9.6875 16.449219 9.476563 L 13.3125 8.257813 C 13.449219 8.167969 13.390625 8.175781 13.617188 8.085938 L 15.402344 7.398438 C 16.046875 7.148438 16.890625 7.011719 17.636719 6.964844 C 18.007813 6.941406 18.359375 6.941406 18.648438 6.957031 Z M 33.226563 7.042969 C 33.511719 7.058594 33.738281 7.09375 33.871094 7.148438 L 36.976563 8.351563 C 36.851563 8.433594 36.917969 8.417969 36.71875 8.5 L 34.988281 9.1875 C 33.742188 9.683594 31.695313 9.738281 31.160156 9.53125 L 28.035156 8.3125 C 28.164063 8.234375 28.113281 8.238281 28.304688 8.164063 C 28.308594 8.164063 28.308594 8.164063 28.3125 8.164063 L 30.054688 7.476563 C 30.683594 7.234375 31.503906 7.097656 32.234375 7.050781 C 32.601563 7.027344 32.941406 7.027344 33.226563 7.042969 Z M 10.28125 9.757813 C 11.035156 9.699219 11.726563 9.789063 11.996094 9.890625 L 15.152344 11.121094 C 15.011719 11.210938 15.054688 11.210938 14.84375 11.296875 C 14.835938 11.296875 14.832031 11.300781 14.828125 11.300781 L 13.03125 12.003906 C 12.371094 12.261719 11.539063 12.441406 10.78125 12.5 C 10.023438 12.558594 9.328125 12.472656 9.054688 12.363281 L 5.882813 11.128906 C 6.03125 11.03125 5.976563 11.035156 6.226563 10.9375 L 8.039063 10.238281 C 8.695313 9.984375 9.527344 9.8125 10.28125 9.757813 Z M 26.085938 9.851563 C 26.375 9.867188 26.601563 9.902344 26.734375 9.953125 L 29.875 11.175781 C 29.742188 11.265625 29.808594 11.253906 29.585938 11.34375 L 27.828125 12.042969 C 26.558594 12.546875 24.492188 12.605469 23.949219 12.394531 C 23.949219 12.394531 23.945313 12.394531 23.941406 12.394531 L 20.785156 11.167969 C 20.917969 11.078125 20.878906 11.078125 21.078125 11 C 21.085938 10.996094 21.089844 10.996094 21.09375 10.996094 L 22.863281 10.300781 C 22.871094 10.296875 22.875 10.296875 22.882813 10.292969 C 23.519531 10.046875 24.34375 9.910156 25.078125 9.859375 C 25.449219 9.835938 25.796875 9.835938 26.085938 9.851563 Z M 40.609375 9.914063 C 40.894531 9.929688 41.117188 9.964844 41.25 10.015625 L 44.375 11.234375 C 44.25 11.316406 44.316406 11.300781 44.113281 11.382813 L 42.402344 12.078125 C 41.164063 12.578125 39.128906 12.632813 38.59375 12.425781 L 35.453125 11.203125 C 35.582031 11.117188 35.519531 11.132813 35.730469 11.046875 L 37.457031 10.359375 C 38.078125 10.109375 38.894531 9.972656 39.621094 9.925781 C 39.984375 9.902344 40.324219 9.898438 40.609375 9.914063 Z M 18.832031 12.703125 C 19.125 12.71875 19.355469 12.757813 19.488281 12.808594 L 22.660156 14.042969 C 22.523438 14.136719 22.578125 14.132813 22.339844 14.230469 L 20.554688 14.9375 C 19.253906 15.457031 17.152344 15.519531 16.609375 15.308594 L 13.417969 14.0625 C 13.554688 13.96875 13.523438 13.960938 13.742188 13.875 C 13.746094 13.871094 13.753906 13.871094 13.761719 13.871094 L 13.761719 13.867188 L 15.558594 13.164063 C 15.566406 13.160156 15.570313 13.160156 15.578125 13.15625 C 16.226563 12.90625 17.066406 12.765625 17.8125 12.714844 C 18.1875 12.6875 18.539063 12.6875 18.832031 12.703125 Z M 33.523438 12.746094 C 33.808594 12.761719 34.039063 12.796875 34.171875 12.847656 L 37.332031 14.078125 C 37.199219 14.167969 37.261719 14.15625 37.035156 14.25 L 35.296875 14.953125 C 34.035156 15.460938 31.976563 15.523438 31.4375 15.3125 L 28.261719 14.078125 C 28.398438 13.984375 28.335938 13.992188 28.570313 13.898438 L 30.324219 13.199219 C 30.957031 12.949219 31.785156 12.808594 32.523438 12.757813 C 32.890625 12.734375 33.238281 12.730469 33.523438 12.746094 Z M 4.054688 12.953125 C 4.101563 12.957031 4.183594 12.964844 4.308594 13.015625 L 4.296875 13.011719 L 6.804688 14.019531 L 6.8125 14.019531 C 7.390625 14.246094 8 15.152344 8 15.546875 L 8 19.921875 C 8.003906 19.992188 8.003906 19.996094 8.003906 20.003906 C 7.988281 20.007813 7.867188 20.039063 7.59375 19.910156 L 5.101563 18.699219 L 5.09375 18.691406 C 4.558594 18.445313 4 17.546875 4 17.1875 L 4 13.078125 C 4 12.894531 4.019531 12.949219 4 12.960938 C 3.992188 12.964844 4.003906 12.953125 4.054688 12.953125 Z M 45.953125 13.238281 C 45.996094 13.242188 46.011719 13.25 46 13.246094 C 45.984375 13.234375 46 13.179688 46 13.355469 L 46 17.386719 C 46 17.734375 45.464844 18.601563 44.949219 18.835938 L 42.398438 19.992188 C 42.132813 20.113281 42.015625 20.082031 42 20.078125 C 42 20.066406 42.003906 20.066406 42.003906 20 L 42.003906 15.6875 C 42.003906 15.308594 42.601563 14.433594 43.164063 14.21875 L 45.707031 13.296875 L 45.710938 13.292969 C 45.832031 13.246094 45.910156 13.238281 45.953125 13.238281 Z M 10.160156 15.386719 C 10.246094 15.386719 10.367188 15.40625 10.53125 15.46875 L 14.5625 17.011719 C 15.304688 17.300781 16 18.332031 16 18.753906 L 16 23.417969 C 16.003906 23.628906 16.019531 23.523438 15.992188 23.535156 C 15.964844 23.546875 15.730469 23.59375 15.34375 23.414063 L 15.332031 23.410156 L 15.328125 23.40625 L 11.308594 21.625 C 10.628906 21.308594 10 20.304688 10 19.917969 L 10 15.546875 C 10 15.355469 10.007813 15.417969 10.027344 15.40625 C 10.035156 15.402344 10.078125 15.386719 10.160156 15.386719 Z M 39.839844 15.527344 C 39.921875 15.527344 39.964844 15.546875 39.976563 15.550781 C 39.996094 15.5625 40 15.503906 40 15.6875 L 40 20 C 40 20.371094 39.382813 21.363281 38.707031 21.667969 L 38.703125 21.671875 L 38.667969 21.6875 C 38.558594 21.726563 38.449219 21.777344 38.34375 21.832031 L 34.671875 23.542969 L 34.667969 23.542969 C 34.285156 23.714844 34.042969 23.671875 34.011719 23.65625 C 33.980469 23.644531 34 23.75 34 23.546875 L 34 18.917969 C 34 18.507813 34.695313 17.496094 35.4375 17.21875 L 35.449219 17.214844 L 39.472656 15.605469 C 39.636719 15.542969 39.753906 15.527344 39.839844 15.527344 Z M 26.328125 15.621094 C 26.617188 15.636719 26.847656 15.675781 26.984375 15.726563 L 30.175781 16.96875 C 30.039063 17.0625 30.09375 17.058594 29.851563 17.15625 L 29.640625 17.242188 L 27.082031 18.152344 L 27.078125 18.15625 C 27.0625 18.160156 27.050781 18.167969 27.039063 18.171875 C 25.875 18.40625 24.574219 18.40625 24.164063 18.246094 L 20.953125 16.996094 C 21.09375 16.894531 21.039063 16.898438 21.296875 16.796875 L 23.078125 16.089844 C 23.726563 15.832031 24.566406 15.6875 25.3125 15.636719 C 25.6875 15.609375 26.039063 15.605469 26.328125 15.621094 Z M 18.296875 18.546875 C 18.421875 18.550781 18.589844 18.578125 18.796875 18.660156 L 22.25 20.003906 C 22.71875 20.1875 23.195313 20.546875 23.523438 20.945313 C 23.851563 21.34375 24 21.773438 24 22 L 24 27 C 24 27.226563 24.035156 27.121094 23.949219 27.152344 C 23.863281 27.183594 23.519531 27.210938 23.035156 26.988281 L 23.039063 26.992188 L 19.578125 25.375 L 19.578125 25.371094 C 18.722656 24.976563 18 23.828125 18 23.417969 L 18 18.753906 C 18 18.546875 17.996094 18.613281 18.0625 18.582031 C 18.09375 18.566406 18.171875 18.546875 18.296875 18.546875 Z M 31.6875 18.707031 C 31.816406 18.707031 31.902344 18.730469 31.9375 18.746094 C 32.007813 18.78125 32.003906 18.722656 32 18.917969 L 32 23.546875 C 32 23.945313 31.285156 25.082031 30.421875 25.472656 L 30.417969 25.472656 L 27.015625 26.984375 L 27.015625 26.988281 C 26.519531 27.210938 26.160156 27.1875 26.0625 27.152344 C 25.964844 27.113281 26 27.222656 26 27 L 26 22 C 26 21.78125 26.152344 21.355469 26.484375 20.957031 C 26.742188 20.648438 27.097656 20.367188 27.46875 20.171875 C 27.933594 20.054688 28.394531 19.90625 28.832031 19.726563 L 30.375 19.105469 L 31.175781 18.816406 L 31.183594 18.816406 C 31.390625 18.738281 31.5625 18.710938 31.6875 18.707031 Z M 43 21.890625 L 43 23.980469 C 43 24.503906 42.46875 25.59375 41.753906 26.296875 L 41.511719 26.476563 L 41.152344 26.738281 L 41.140625 26.75 L 41.105469 26.777344 L 41.058594 26.816406 C 41.039063 26.839844 41.019531 26.855469 41 26.875 L 41 23.277344 C 41 22.992188 41.222656 22.511719 41.554688 22.03125 C 42.03125 22.136719 42.527344 22.070313 43 21.890625 Z M 5.515625 23.644531 C 5.613281 23.628906 5.730469 23.632813 5.886719 23.671875 L 10.53125 24.824219 C 10.863281 24.90625 11.292969 25.167969 11.59375 25.503906 C 11.890625 25.84375 12.046875 26.230469 12.046875 26.5 L 12.039063 31.300781 C 12.039063 31.625 11.9375 31.769531 11.824219 31.859375 C 11.707031 31.945313 11.53125 32.011719 11.207031 31.925781 L 11.203125 31.925781 L 11.199219 31.921875 L 6.359375 30.71875 C 5.734375 30.554688 5.070313 29.6875 5.070313 29.046875 L 5.078125 24.300781 C 5.078125 23.980469 5.179688 23.835938 5.296875 23.746094 C 5.351563 23.703125 5.421875 23.660156 5.515625 23.644531 Z M 39 23.8125 L 39 27.511719 C 39 28.003906 38.441406 29.59375 37.652344 30.347656 L 37.410156 30.539063 L 37.378906 30.570313 C 37.164063 30.773438 37.152344 30.742188 37 30.828125 L 37 26.800781 C 37 26.074219 37.316406 25.136719 38.191406 24.4375 L 38.847656 23.910156 C 38.960938 23.820313 38.90625 23.863281 39 23.8125 Z M 14.46875 25.828125 C 14.558594 25.828125 14.644531 25.84375 14.703125 25.859375 L 17.824219 26.636719 C 18.105469 26.84375 18.410156 27.035156 18.734375 27.1875 L 20.71875 28.113281 C 20.890625 28.398438 21.023438 28.691406 21.019531 28.953125 L 21.019531 33.808594 C 21.019531 34.011719 20.96875 34.15625 20.871094 34.234375 C 20.757813 34.320313 20.507813 34.378906 20.136719 34.28125 C 20.136719 34.28125 20.132813 34.28125 20.132813 34.28125 L 20.128906 34.28125 L 15.390625 33.015625 L 15.386719 33.011719 C 15.382813 33.011719 15.378906 33.011719 15.375 33.011719 C 14.726563 32.835938 14.121094 32.160156 14.019531 31.496094 C 14.023438 31.429688 14.039063 31.367188 14.039063 31.300781 L 14.046875 26.5 C 14.046875 26.425781 14.027344 26.355469 14.023438 26.28125 C 14.066406 26.070313 14.167969 25.941406 14.234375 25.886719 C 14.296875 25.839844 14.382813 25.824219 14.46875 25.828125 Z M 35 27.382813 L 35 31.410156 C 35 31.609375 34.828125 32.285156 34.480469 32.953125 C 34.132813 33.613281 33.632813 34.308594 33.113281 34.808594 L 32.214844 35.542969 L 32.1875 35.566406 C 32.105469 35.644531 32.074219 35.652344 32 35.71875 L 32 31.152344 C 32 30.351563 32.386719 29.226563 33.496094 28.335938 L 34.109375 27.875 L 34.125 27.863281 C 34.503906 27.5625 34.75 27.488281 35 27.382813 Z M 43 27.863281 L 43 30.5 C 43 30.667969 42.875 31.273438 42.625 31.855469 C 42.375 32.4375 42.015625 33.042969 41.679688 33.40625 L 41.679688 33.410156 L 41.125 34.019531 C 41.0625 34.085938 41.058594 34.066406 41 34.121094 L 41 30.890625 C 41 30.703125 41.132813 30.183594 41.402344 29.671875 C 41.667969 29.164063 42.054688 28.644531 42.421875 28.289063 L 42.996094 27.863281 Z M 27.226563 29.054688 L 29.109375 29.542969 C 29.621094 29.886719 30 30.492188 30 31.054688 L 30 35.96875 C 30 36.148438 29.960938 36.390625 29.773438 36.535156 C 29.609375 36.664063 29.359375 36.691406 29.074219 36.617188 L 29.0625 36.613281 L 25.699219 35.847656 L 24.410156 35.554688 C 24.410156 35.554688 24.40625 35.554688 24.40625 35.554688 C 23.667969 35.363281 23 34.546875 23 33.808594 L 23 29.128906 L 24.628906 29.78125 C 24.867188 29.878906 25.128906 29.878906 25.367188 29.785156 Z M 39 31.832031 L 39 35.136719 C 38.996094 35.347656 38.867188 35.933594 38.59375 36.527344 C 38.324219 37.128906 37.921875 37.765625 37.484375 38.246094 L 37 38.777344 L 37 35.09375 C 37 34.890625 37.164063 34.292969 37.488281 33.691406 C 37.816406 33.097656 38.285156 32.476563 38.75 32.03125 L 38.988281 31.84375 Z M 5.492188 32.625 C 5.589844 32.609375 5.707031 32.617188 5.863281 32.65625 L 5.867188 32.65625 L 10.707031 33.863281 C 11.351563 34.035156 12.035156 34.921875 12.035156 35.570313 L 12.03125 40.375 C 12.027344 40.648438 11.9375 40.773438 11.765625 40.890625 C 11.59375 41.003906 11.320313 41.066406 11.011719 40.984375 L 6.359375 39.722656 C 5.730469 39.550781 5.054688 38.664063 5.054688 38.019531 L 5.0625 33.269531 C 5.0625 32.949219 5.164063 32.808594 5.273438 32.722656 C 5.332031 32.679688 5.398438 32.644531 5.492188 32.625 Z M 14.488281 34.917969 C 14.589844 34.898438 14.714844 34.90625 14.878906 34.949219 L 16.152344 35.285156 L 19.621094 36.21875 L 19.625 36.21875 C 19.925781 36.296875 20.300781 36.566406 20.578125 36.945313 C 20.859375 37.328125 21.015625 37.800781 21.015625 38.125 L 21.015625 42.984375 C 21.015625 43.261719 20.96875 43.28125 20.8125 43.367188 C 20.652344 43.453125 20.320313 43.507813 19.941406 43.40625 L 15.1875 42.113281 C 14.554688 41.941406 14.03125 41.136719 14.03125 40.375 L 14.035156 35.574219 C 14.039063 35.246094 14.136719 35.105469 14.253906 35.015625 C 14.316406 34.972656 14.390625 34.933594 14.488281 34.917969 Z M 35 35.894531 L 35 39.71875 C 34.996094 39.890625 34.808594 40.617188 34.433594 41.347656 C 34.058594 42.085938 33.523438 42.886719 32.972656 43.488281 C 32.972656 43.492188 32.972656 43.492188 32.96875 43.496094 L 32.144531 44.355469 L 32.140625 44.359375 C 32.082031 44.425781 32.054688 44.4375 32.003906 44.492188 L 32.003906 40.339844 C 32.003906 40.332031 32.003906 40.324219 32 40.316406 L 32 40.265625 C 32 39.460938 32.421875 38.109375 33.558594 37.027344 L 34.453125 36.292969 L 34.480469 36.265625 L 34.484375 36.265625 C 34.746094 36.019531 34.800781 36.023438 35 35.894531 Z M 23.496094 37.457031 C 23.601563 37.441406 23.734375 37.445313 23.90625 37.488281 L 23.921875 37.496094 L 28.574219 38.554688 C 29.277344 38.738281 29.992188 39.65625 30 40.324219 L 30 45.265625 C 30 45.589844 29.898438 45.730469 29.773438 45.820313 C 29.644531 45.914063 29.441406 45.980469 29.082031 45.886719 L 24.21875 44.5625 C 23.449219 44.355469 23.011719 43.757813 23.015625 42.984375 L 23.015625 38.125 C 23.019531 37.796875 23.121094 37.652344 23.246094 37.5625 C 23.304688 37.515625 23.386719 37.472656 23.496094 37.457031 Z" fill="#000000"/></svg>
