<?xml version="1.0" encoding="utf-8"?>
<svg xmlns="http://www.w3.org/2000/svg" viewBox="0 0 50 50" fill="#000000"><path d="M 11 0 C 10.449219 0 10 0.449219 10 1 L 10 34 L 37 34 C 38.652344 34 40 35.347656 40 37 C 40 38.632813 38.683594 39.964844 37.0625 40 C 36.742188 40.179688 36 41.28125 36 43 C 36 44.894531 37.253906 47.726563 39.25 47.9375 C 40.90625 47.9375 42.085938 47.9375 42.71875 47.9375 C 44.71875 46.285156 46 43.789063 46 41 L 46 1 C 46 0.449219 45.554688 0 45 0 Z M 9 36 C 6.242188 36 4 39.140625 4 43 C 4 46.859375 6.242188 50 9 50 L 37 50 C 37.554688 50 38.269531 49.910156 38.78125 49.8125 C 35.6875 49.8125 34 45.664063 34 43 C 34 40.335938 35.402344 38 37 38 C 37.554688 38 38 37.554688 38 37 C 38 36.445313 37.554688 36 37 36 Z" fill="#000000"/></svg>
