<?xml version="1.0" encoding="utf-8"?>
<svg xmlns="http://www.w3.org/2000/svg" viewBox="0 0 50 50" fill="#000000"><path d="M 1.53125 4.28125 C 1.121094 4.28125 0.738281 4.472656 0.46875 4.78125 C 0.101563 5.203125 -0.015625 5.796875 0.09375 6.59375 C 1.492188 16.691406 4.914063 19.808594 8.625 21.59375 C 8.433594 22.222656 8.257813 22.871094 8.15625 23.5 L 8.15625 23.625 C 8.402344 24.554688 8.988281 25.523438 9.90625 26.46875 C 12.257813 28.882813 16.964844 31 25 31 C 33.085938 31 37.820313 28.871094 40.15625 26.4375 C 41.050781 25.507813 41.601563 24.539063 41.84375 23.625 C 41.84375 23.621094 41.84375 23.597656 41.84375 23.59375 C 41.742188 22.929688 41.574219 22.261719 41.375 21.59375 C 45.089844 19.808594 48.507813 16.726563 49.90625 6.625 C 50.019531 5.828125 49.894531 5.203125 49.53125 4.78125 C 49.261719 4.472656 48.878906 4.28125 48.46875 4.28125 C 47.742188 4.28125 47.054688 4.824219 46.71875 5.65625 C 43.941406 12.550781 40.710938 14.035156 37.0625 14.75 C 35.0625 12.898438 32.65625 11.667969 30 11.15625 L 30 25.8125 C 30 26.367188 29.554688 26.8125 29 26.8125 C 28.445313 26.8125 28 26.367188 28 25.8125 L 28 9.46875 C 27.726563 9.308594 26.960938 9.003906 25.0625 9 L 24.9375 9 C 23.039063 9.003906 22.273438 9.308594 22 9.46875 L 22 25.8125 C 22 26.367188 21.550781 26.8125 21 26.8125 C 20.449219 26.8125 20 26.367188 20 25.8125 L 20 11.15625 C 17.34375 11.667969 14.910156 12.898438 12.90625 14.75 C 9.257813 14.035156 6.058594 12.550781 3.28125 5.65625 C 2.945313 4.824219 2.261719 4.28125 1.53125 4.28125 Z M 2.46875 8.71875 C 5.628906 14.96875 9.453125 16.1875 13.25 16.84375 C 13.703125 16.921875 14.140625 16.992188 14.59375 17.0625 C 14.785156 17.09375 14.992188 17.125 15.1875 17.15625 C 15.125 17.957031 14.816406 18.609375 14.5 19.09375 C 14.4375 19.1875 14.402344 19.265625 14.34375 19.34375 C 14.253906 19.464844 14.140625 19.597656 14.0625 19.6875 C 13.335938 20.503906 12.496094 20.875 12.03125 20.875 L 11.90625 20.8125 C 11.335938 20.589844 10.773438 20.367188 10.21875 20.125 C 6.9375 18.683594 3.984375 16.476563 2.46875 8.71875 Z M 47.53125 8.75 C 46.015625 16.5 43.0625 18.683594 39.78125 20.125 C 39.222656 20.371094 38.664063 20.589844 38.09375 20.8125 L 37.96875 20.875 C 37.503906 20.875 36.664063 20.503906 35.9375 19.6875 C 35.53125 19.230469 34.902344 18.339844 34.8125 17.15625 C 35.003906 17.125 35.214844 17.09375 35.40625 17.0625 C 35.859375 16.992188 36.296875 16.921875 36.75 16.84375 C 40.546875 16.1875 44.371094 14.996094 47.53125 8.75 Z M 8 27.28125 L 8 34.5 C 8 38.773438 15.308594 42 25 42 C 34.691406 42 42 38.773438 42 34.5 L 42 27.28125 C 39.410156 30.316406 34.109375 33 25 33 C 15.890625 33 10.589844 30.316406 8 27.28125 Z M 12.0625 32.8125 C 12.683594 32.8125 13.1875 33.621094 13.1875 34.59375 C 13.1875 35.566406 12.683594 36.34375 12.0625 36.34375 C 11.441406 36.34375 10.9375 35.566406 10.9375 34.59375 C 10.9375 33.621094 11.441406 32.8125 12.0625 32.8125 Z M 37.9375 32.8125 C 38.558594 32.8125 39.0625 33.621094 39.0625 34.59375 C 39.0625 35.566406 38.558594 36.34375 37.9375 36.34375 C 37.316406 36.34375 36.8125 35.566406 36.8125 34.59375 C 36.8125 33.621094 37.316406 32.8125 37.9375 32.8125 Z M 17.625 34.84375 C 18.5 34.84375 19.1875 35.636719 19.1875 36.625 C 19.1875 37.613281 18.503906 38.4375 17.625 38.4375 C 16.75 38.4375 16.03125 37.613281 16.03125 36.625 C 16.03125 35.636719 16.746094 34.84375 17.625 34.84375 Z M 32.375 34.84375 C 33.253906 34.84375 33.96875 35.636719 33.96875 36.625 C 33.964844 37.613281 33.253906 38.4375 32.375 38.4375 C 31.5 38.4375 30.8125 37.613281 30.8125 36.625 C 30.8125 35.636719 31.496094 34.84375 32.375 34.84375 Z M 25 35.3125 C 26.019531 35.3125 26.84375 36.136719 26.84375 37.15625 C 26.84375 38.175781 26.019531 39 25 39 C 23.980469 39 23.15625 38.175781 23.15625 37.15625 C 23.15625 36.136719 23.980469 35.3125 25 35.3125 Z" fill="#000000"/></svg>
