<?xml version="1.0" encoding="utf-8"?>
<svg xmlns="http://www.w3.org/2000/svg" viewBox="0 0 50 50" fill="#000000"><path d="M 4.8457031 6 C 3.2757031 6 2 7.2757031 2 8.8457031 L 2 18 L 48 18 L 48 8.8457031 C 48 7.2757031 46.724297 6 45.154297 6 L 4.8457031 6 z M 8 10 C 9.104 10 10 10.895 10 12 C 10 13.104 9.104 14 8 14 C 6.896 14 6 13.104 6 12 C 6 10.895 6.896 10 8 10 z M 14 10 C 15.104 10 16 10.895 16 12 C 16 13.104 15.104 14 14 14 C 12.896 14 12 13.104 12 12 C 12 10.895 12.896 10 14 10 z M 19 10 L 43 10 L 43 14 L 19 14 L 19 10 z M 2 20 L 2 43 C 2 43.553 2.447 44 3 44 L 47 44 C 47.553 44 48 43.553 48 43 L 48 20 L 2 20 z M 8 24 L 28 24 L 28 29 L 8 29 L 8 24 z M 33 24 L 42 24 L 42 38 L 33 38 L 33 24 z M 8 33 L 28 33 L 28 38 L 8 38 L 8 33 z" fill="#000000"/></svg>
