<?xml version="1.0" encoding="utf-8"?>
<svg xmlns="http://www.w3.org/2000/svg" viewBox="0 0 26 26" fill="#000000"><path d="M 0.8125 0 C 0.335938 0.0898438 -0.0078125 0.511719 0 1 L 0 22 C 0 22.550781 0.449219 23 1 23 L 9 23 L 9 21 L 2 21 L 2 2 L 24 2 L 24 21 L 17 21 L 17 23 L 25 23 C 25.550781 23 26 22.550781 26 22 L 26 1 C 26 0.449219 25.550781 0 25 0 L 1 0 C 0.96875 0 0.9375 0 0.90625 0 C 0.875 0 0.84375 0 0.8125 0 Z M 5 5 L 5 8 L 21 8 L 21 5 Z M 5 10 L 5 12 L 21 12 L 21 10 Z M 13 13.59375 C 12.601563 13.59375 12.195313 13.914063 12.09375 14.3125 L 12 14.3125 C 11.699219 14.113281 11.207031 14.105469 10.90625 14.40625 C 10.605469 14.707031 10.492188 15.101563 10.59375 15.5 C 10.59375 15.5 10.601563 15.59375 10.5 15.59375 C 10.101563 15.695313 9.789063 16.007813 9.6875 16.40625 C 9.585938 16.804688 9.789063 17.207031 10.1875 17.40625 L 10.1875 17.59375 C 9.988281 17.894531 9.894531 18.289063 10.09375 18.6875 C 10.292969 18.988281 10.695313 19.1875 11.09375 19.1875 C 11.195313 19.1875 11.210938 19.3125 11.3125 19.3125 C 11.3125 19.710938 11.507813 19.988281 11.90625 20.1875 C 12.304688 20.289063 12.707031 20.207031 12.90625 19.90625 L 13.09375 19.90625 C 13.292969 20.105469 13.511719 20.1875 13.8125 20.1875 C 13.914063 20.1875 13.992188 20.195313 14.09375 20.09375 C 14.492188 19.992188 14.6875 19.585938 14.6875 19.1875 C 14.789063 19.1875 14.804688 19.09375 14.90625 19.09375 C 15.304688 19.195313 15.707031 18.992188 15.90625 18.59375 C 16.105469 18.292969 16.113281 17.800781 15.8125 17.5 L 15.8125 17.3125 C 16.113281 17.210938 16.3125 16.804688 16.3125 16.40625 C 16.210938 16.007813 15.898438 15.695313 15.5 15.59375 C 15.5 15.59375 15.507813 15.5 15.40625 15.5 C 15.507813 15.101563 15.394531 14.707031 15.09375 14.40625 C 14.792969 14.105469 14.300781 14.113281 14 14.3125 L 13.90625 14.3125 C 13.804688 13.914063 13.398438 13.59375 13 13.59375 Z M 13 15.40625 C 13.898438 15.40625 14.59375 16.101563 14.59375 17 C 14.59375 17.898438 13.898438 18.59375 13 18.59375 C 12.101563 18.59375 11.40625 17.898438 11.40625 17 C 11.40625 16.101563 12.101563 15.40625 13 15.40625 Z M 10 19.8125 L 10 26 L 13 24 L 16 26 L 16 19.8125 C 15.898438 19.914063 15.695313 20 15.59375 20 C 15.394531 20.5 15 20.800781 14.5 21 C 14.300781 21.101563 14.113281 21.09375 13.8125 21.09375 C 13.511719 21.09375 13.199219 21.007813 13 20.90625 C 12.699219 21.007813 12.488281 21.09375 12.1875 21.09375 C 11.988281 21.09375 11.800781 21.101563 11.5 21 C 11 20.800781 10.605469 20.5 10.40625 20 C 10.207031 20 10.101563 19.914063 10 19.8125 Z" fill="#000000"/></svg>
