<?xml version="1.0" encoding="utf-8"?>
<svg xmlns="http://www.w3.org/2000/svg" viewBox="0 0 26 26" fill="#000000"><path d="M 11 0 C 4.933594 0 0 4.933594 0 11 C 0 17.066406 4.933594 22 11 22 L 11 20 C 6.039063 20 2 15.960938 2 11 C 2 6.039063 6.039063 2 11 2 C 15.960938 2 20 6.039063 20 11 L 22 11 C 22 4.933594 17.066406 0 11 0 Z M 11 3 C 6.589844 3 3 6.589844 3 11 C 3 15.410156 6.589844 19 11 19 L 11 17 C 7.691406 17 5 14.308594 5 11 C 5 7.691406 7.691406 5 11 5 C 14.308594 5 17 7.691406 17 11 L 19 11 C 19 6.589844 15.410156 3 11 3 Z M 11 6 C 8.242188 6 6 8.242188 6 11 C 6 13.757813 8.242188 16 11 16 L 11 14 C 9.347656 14 8 12.652344 8 11 C 8 9.347656 9.347656 8 11 8 C 12.652344 8 14 9.347656 14 11 L 16 11 C 16 8.242188 13.757813 6 11 6 Z M 15.8125 12 C 15.609375 12.035156 15.425781 12.136719 15.28125 12.28125 L 12.28125 15.28125 C 12.09375 15.472656 11.992188 15.734375 12 16 L 12 24.5 C 12 25.316406 12.683594 26 13.5 26 L 24.5 26 C 25.316406 26 26 25.316406 26 24.5 L 26 13.5 C 26 12.683594 25.316406 12 24.5 12 L 16 12 C 15.96875 12 15.9375 12 15.90625 12 C 15.875 12 15.84375 12 15.8125 12 Z M 16.4375 14 L 24 14 L 24 24 L 14 24 L 14 16.4375 Z M 17.15625 17 C 17.0625 17 17 17.066406 17 17.15625 L 17 20.84375 C 17 20.9375 17.066406 21 17.15625 21 L 20.84375 21 C 20.9375 21 21 20.9375 21 20.84375 L 21 17.15625 C 21 17.0625 20.933594 17 20.84375 17 Z" fill="#000000"/></svg>
