<?xml version="1.0" encoding="utf-8"?>
<svg xmlns="http://www.w3.org/2000/svg" viewBox="0 0 32 32" fill="#000000"><path d="M 16 4 C 9.382813 4 4 9.382813 4 16 C 4 22.617188 9.382813 28 16 28 C 22.617188 28 28 22.617188 28 16 C 28 9.382813 22.617188 4 16 4 Z M 16 6 C 21.535156 6 26 10.464844 26 16 C 26 21.535156 21.535156 26 16 26 C 10.464844 26 6 21.535156 6 16 C 6 10.464844 10.464844 6 16 6 Z M 15.65625 8.8125 C 15.582031 8.792969 15.511719 8.804688 15.4375 8.84375 C 15.292969 8.921875 15.214844 9.097656 15.28125 9.25 C 15.75 10.351563 17.398438 14.140625 18.78125 16.6875 L 20.0625 16 C 18.746094 13.460938 16.480469 9.929688 15.84375 8.9375 C 15.796875 8.867188 15.730469 8.832031 15.65625 8.8125 Z M 15.375 11 C 15.042969 10.957031 14.707031 11.101563 14.53125 11.40625 L 16 12.28125 C 16.234375 11.871094 16.09375 11.328125 15.6875 11.09375 C 15.585938 11.035156 15.484375 11.015625 15.375 11 Z M 14.40625 11.625 L 13.625 12.96875 L 15.125 13.8125 L 15.875 12.5 Z M 13.53125 13.125 L 10.40625 18.5625 L 11.875 19.40625 L 15 14 Z M 9.46875 15.03125 L 9.46875 17.59375 L 10.59375 17.59375 L 12.09375 15.03125 Z M 14.75 15.03125 L 13.28125 17.59375 L 19 17.59375 L 18.625 17.03125 C 18.601563 16.996094 18.515625 16.875 18.5 16.84375 C 18.195313 16.285156 17.90625 15.671875 17.59375 15.03125 Z M 19.875 15.03125 C 20.035156 15.324219 20.203125 15.601563 20.34375 15.875 C 20.359375 15.902344 20.421875 16.023438 20.4375 16.0625 L 21.09375 17.59375 L 22.65625 17.59375 L 22.65625 15.03125 Z M 20.15625 16.1875 L 18.875 16.875 L 19.84375 18.375 L 20.84375 17.8125 Z M 20.9375 18.0625 L 20 18.5625 L 21 20.9375 C 21.175781 21.355469 21.660156 21.558594 22.0625 21.34375 C 22.464844 21.128906 22.59375 20.597656 22.34375 20.21875 Z M 10.28125 18.75 L 9.75 21.28125 L 9.875 21.34375 L 11.78125 19.625 Z" fill="#000000"/></svg>
