<?xml version="1.0" encoding="utf-8"?>
<svg xmlns="http://www.w3.org/2000/svg" viewBox="0 0 50 50" fill="#000000"><path d="M 5 4 A 1.0001 1.0001 0 0 0 4 5 L 4 33 C 4 33.364244 4.1065027 33.703765 4.28125 34 C 4.1065027 34.296235 4 34.635756 4 35 L 4 45 A 1.0001 1.0001 0 0 0 5 46 L 45 46 A 1.0001 1.0001 0 0 0 46 45 L 46 35 C 46 34.635756 45.893497 34.296235 45.71875 34 C 45.893497 33.703765 46 33.364244 46 33 L 46 5 A 1.0001 1.0001 0 0 0 45 4 L 5 4 z M 6 6 L 44 6 L 44 33 L 6 33 L 6 6 z M 10 8 C 8.9069372 8 8 8.9069372 8 10 L 8 28 C 8 29.093063 8.9069372 30 10 30 L 40 30 C 41.093063 30 42 29.093063 42 28 L 42 10 C 42 8.9069372 41.093063 8 40 8 L 10 8 z M 10 10 L 40 10 L 40 28 L 10 28 L 10 10 z M 6 35 L 44 35 L 44 44 L 6 44 L 6 35 z M 38 37 C 36.896 37 36 37.895 36 39 C 36 40.105 36.896 41 38 41 C 39.104 41 40 40.105 40 39 C 40 37.895 39.104 37 38 37 z M 10 38 L 10 40 L 26 40 L 26 38 L 10 38 z" fill="#000000"/></svg>
